<?xml version="1.0" standalone="no"?>
<!DOCTYPE svg PUBLIC "-//W3C//DTD SVG 1.1//EN" "http://www.w3.org/Graphics/SVG/1.1/DTD/svg11.dtd" >
<!--
2013-9-30: Created.
-->
<svg>
<metadata>
Created by iconfont
</metadata>
<defs>

<font id="iconfont" horiz-adv-x="1024" >
  <font-face
    font-family="iconfont"
    font-weight="500"
    font-stretch="normal"
    units-per-em="1024"
    ascent="896"
    descent="-128"
  />
    <missing-glyph />
    
    <glyph glyph-name="yuyin-shanchu" unicode="&#59011;" d="M753.379556 625.379556a341.333333 341.333333 0 1 1-482.759112-482.702223 341.333333 341.333333 0 0 1 482.759112 482.702223z m-152.007112-367.786667L512 347.022222l-89.372444-89.429333a21.333333 21.333333 0 1 0-30.208 30.208l89.372444 89.429333-89.372444 89.372445a21.333333 21.333333 0 1 0 30.151111 30.208L512 407.438222l89.429333 89.372445a21.333333 21.333333 0 1 0 30.151111-30.151111L542.208 377.173333l89.372444-89.429333a21.333333 21.333333 0 1 0-30.151111-30.151111z"  horiz-adv-x="1024" />

    
    <glyph glyph-name="bofang" unicode="&#59008;" d="M833.152 298.944l-464.64-311.552a102.4 102.4 0 0 0-159.424 85.12V695.488a102.4 102.4 0 0 0 159.36 85.056l464.64-311.552a102.4 102.4 0 0 0 0-170.112z"  horiz-adv-x="1024" />

    
    <glyph glyph-name="luyin" unicode="&#59009;" d="M527.04 182.01599999999996a200.448 200.448 0 0 1 205.76 194.88V700.992a206.08 206.08 0 0 1-411.584 0v-323.968a202.176 202.176 0 0 1 205.824-195.008z m278.912 297.6v-104.96a279.232 279.232 0 0 0-558.08 0v115.2a40.704 40.704 0 0 1-81.216 0v-115.2a349.12 349.12 0 0 1 319.488-339.008v-82.24H350.784a38.72 38.72 0 1 1 0-77.44h352a38.784 38.784 0 1 1 0 77.44H567.488v82.24a349.12 349.12 0 0 1 319.36 338.944V479.616a39.104 39.104 0 0 1-39.168 39.04h-1.024a40.64 40.64 0 0 1-40.704-39.04z"  horiz-adv-x="1024" />

    
    <glyph glyph-name="zanting" unicode="&#59010;" d="M319.616 750.336a55.232 55.232 0 0 1-55.232-55.232v-622.208a55.232 55.232 0 0 1 110.464 0V695.104a55.232 55.232 0 0 1-55.232 55.232z m384.768 0a55.232 55.232 0 0 1-55.232-55.232v-622.208a55.232 55.232 0 0 1 110.464 0V695.104a55.232 55.232 0 0 1-55.232 55.232z"  horiz-adv-x="1024" />

    
    <glyph glyph-name="zhongzhi" unicode="&#59007;" d="M1022.543726 711.021714l-94.500572-241.298285-15.725714-40.228572a21.577143 21.577143 0 0 0-28.013714-12.214857l-40.228572 15.725714-241.371428 94.573715a21.577143 21.577143 0 0 0-12.214857 28.013714l15.725714 40.228571a21.577143 21.577143 0 0 0 28.013714 12.214857l199.899429-78.336c-57.782857 142.189714-196.096 243.053714-358.985143 243.053715a388.827429 388.827429 0 0 1 0-777.508572 388.608 388.608 0 0 1 366.153143 259.145143h90.624A474.989714 474.989714 0 0 0 0.006583 384 475.136 475.136 0 0 0 475.142583 859.136a474.038857 474.038857 0 0 0 415.963428-246.710857l50.980572 130.121143a21.577143 21.577143 0 0 0 28.013714 12.214857l40.228572-15.725714c11.044571-4.388571 16.530286-16.896 12.214857-28.013715z"  horiz-adv-x="1024" />

    
    <glyph glyph-name="yixuanzhong" unicode="&#59006;" d="M0 896h1024v-1024H0zM832 896a192 192 0 0 0 192-192v-640a192 192 0 0 0-192-192H192a192 192 0 0 0-192 192V704a192 192 0 0 0 192 192h640z m0-64H192a128 128 0 0 1-127.616-118.464L64 704v-640a128 128 0 0 1 118.464-127.616L192-64h640a128 128 0 0 1 127.616 118.464L960 64V704a128 128 0 0 1-118.464 127.616L832 832zM843.2 640l-454.528-454.592-214.784 214.848L128 354.368l260.672-260.672 500.48 500.48L843.2 640z"  horiz-adv-x="1024" />

    
    <glyph glyph-name="yincang" unicode="&#59004;" d="M511.59104 350.08C327.59104 350.08 143.84704 406.016 12.83904 517.568a37.568 37.568 0 0 0-3.456 53.12 37.888 37.888 0 0 0 53.376 3.456c230.848-198.656 667.648-198.656 897.472 0a37.888 37.888 0 0 0 53.376-3.456 37.568 37.568 0 0 0-3.456-53.12C879.27104 405.888 695.59104 350.08 511.59104 350.08z m-136.64-164.352a30.784 30.784 0 0 0-6.72 0 36.928 36.928 0 0 0-31.168 44.928l24.96 146.56a37.952 37.952 0 0 0 74.752-12.928l-24.96-146.496a37.312 37.312 0 0 0-36.864-32z m560.448 74.56a36.864 36.864 0 0 0-26.432 11.136l-122.88 124.16a37.12 37.12 0 0 0 16 64.384 37.504 37.504 0 0 0 37.12-12.288l122.88-124.16a37.12 37.12 0 0 0 0-52.608 39.04 39.04 0 0 0-26.688-10.624z m-847.68 0a38.976 38.976 0 0 0-24.96 10.624 37.12 37.12 0 0 0 0 52.672l122.944 124.16a37.504 37.504 0 0 0 67.392-14.144 37.12 37.12 0 0 0-15.808-38.016l-122.88-124.16a36.992 36.992 0 0 0-26.688-11.136z m562.176-74.56a37.312 37.312 0 0 0-36.608 30.848l-24.96 146.496a37.12 37.12 0 0 0 9.792 38.784 37.504 37.504 0 0 0 63.04-24.64l24.96-146.56a36.8 36.8 0 0 0-30.208-43.2 30.72 30.72 0 0 0-6.016-1.664z"  horiz-adv-x="1024" />

    
    <glyph glyph-name="xianshi" unicode="&#59005;" d="M658.304 381.568c0-80.64-65.856-146.56-146.304-146.56a146.88 146.88 0 0 0-146.304 146.56c0 80.64 65.856 146.624 146.304 146.624a146.88 146.88 0 0 0 146.304-146.56zM512 601.984a220.096 220.096 0 0 1-219.456-219.456A220.096 220.096 0 0 1 512 163.2a220.096 220.096 0 0 1 219.456 219.392A220.096 220.096 0 0 1 512 601.984zM512 721.664c234.048 0 438.848-214.784 438.848-339.136 0-124.352-204.8-339.072-438.848-339.072-241.344 0-438.848 210.944-438.848 339.072C73.152 510.72 270.656 721.664 512 721.664z m0 75.328c-281.6 0-512-252.416-512-414.464 0-161.984 230.4-414.464 512-414.464s512 252.48 512 414.464c0 162.048-230.4 414.464-512 414.464z"  horiz-adv-x="1024" />

    
    <glyph glyph-name="shuaxin" unicode="&#59002;" d="M908.16 686.912l-56.32-44.096a418.56 418.56 0 0 1-330.432 161.28 419.264 419.264 0 0 1-419.52-419.072 419.52 419.52 0 0 1 813.696-144.256 8 8 0 0 1-4.864 10.24l-56.64 19.52a8 8 0 0 1-10.112-4.8 341.824 341.824 0 0 0-79.552-124.16 341.44 341.44 0 0 0-242.88-100.672 341.056 341.056 0 0 0-242.816 100.672 341.824 341.824 0 0 0-100.608 243.008 341.888 341.888 0 0 0 100.608 243.072A341.44 341.44 0 0 0 521.6 728.32a341.056 341.056 0 0 0 242.88-100.672c9.856-9.856 19.2-20.352 27.776-31.36l-60.16-46.976a8 8 0 0 1 3.008-14.08l175.36-42.88a8 8 0 0 1 9.92 7.68l0.832 180.672a8.064 8.064 0 0 1-12.992 6.208z"  horiz-adv-x="1024" />

    
    <glyph glyph-name="qiehuan" unicode="&#59003;" d="M830.4 438.08h-636.8a48 48 0 0 0 0 96h636.8a48 48 0 0 0 0-96zM193.6 438.08a47.936 47.936 0 0 0-33.92 81.984l179.904 179.904a47.936 47.936 0 0 0 67.904 0 47.936 47.936 0 0 0 0-67.84L227.52 452.096a47.424 47.424 0 0 0-33.92-14.016z m636.8-204.16h-636.8a48 48 0 0 0 0 96h636.8a48 48 0 0 0 0-96zM650.496 54.08a47.936 47.936 0 0 0-33.92 81.984l179.904 179.968a47.936 47.936 0 0 0 67.904 0 47.936 47.936 0 0 0 0-67.904l-179.968-180.032a47.616 47.616 0 0 0-33.92-14.016z"  horiz-adv-x="1024" />

    
    <glyph glyph-name="gengduo1" unicode="&#59001;" d="M704.418909 384L392.797091 695.575273 319.581091 622.359273 557.428364 384l-237.847273-238.359273 73.216-73.262545z"  horiz-adv-x="1024" />

    
    <glyph glyph-name="caozuo" unicode="&#59000;" d="M3925.333333 896a512 512 0 1 0 0-1024 512 512 0 0 0 0 1024z m-1706.666666 0a512 512 0 1 0 0-1024 512 512 0 0 0 0 1024z m-1706.666667 0a512 512 0 1 0 0-1024 512 512 0 0 0 0 1024z"  horiz-adv-x="4437" />

    
    <glyph glyph-name="mingshibang" unicode="&#58997;" d="M183.816615 441.585048C117.70635 441.585048 64.331751 388.210449 64.331751 319.98824v-326.391432c0-66.110265 53.374599-121.596808 119.484864-121.596808h277.304721L277.638152 441.585048H183.816615z m614.383872 0h-93.885535L523.007711-128h275.192776a119.292869 119.292869 0 0 1 119.420865 119.484864V319.98824c0 66.110265-53.310601 119.420865-119.420865 121.596808zM828.023704 59.707073H676.603679a18.367518 18.367518 0 0 0-17.087551 17.087551c0 8.511777 8.511777 17.087551 17.087551 17.087552h151.420025c8.511777 0 17.087551-8.575775 17.087552-17.087552s-8.575775-14.911609-17.087552-17.087551zM491.008551 447.98488c123.708753-2.175943 226.106065 98.109425 226.106065 219.706233A223.99412 223.99412 0 0 1 497.408383 895.909122a222.650155 222.650155 0 0 1-226.170063-221.818177V671.979001C269.126375 550.382192 369.411743 450.096825 491.008551 447.98488z m0-36.287047L382.211407 319.98824l108.797144-334.903208L599.805695 319.98824l-108.797144 91.709593z"  horiz-adv-x="1024" />

    
    <glyph glyph-name="renqibang" unicode="&#58998;" d="M94.573714 592.457143C164.571429 671.670857 220.672 759.808 213.796571 856.795429c-0.658286 9.874286-0.512 19.748571-1.170285 29.476571a8.557714 8.557714 0 0 0 8.045714 9.216c2.925714 0.146286 5.632 0.365714 8.411429 0.365714 210.797714 0 381.732571-163.108571 381.732571-364.324571 0-15.140571-1.097143-29.842286-3.072-44.470857a8.338286 8.338286 0 0 1 14.262857-7.094857 356.205714 356.205714 0 0 1 108.982857 223.963428 8.484571 8.484571 0 0 0 12.726857 6.436572c139.995429-82.285714 233.545143-229.376 233.545143-397.750858 0-192.512-122.294857-357.814857-296.740571-428.982857a152.137143 152.137143 0 0 0-99.620572-5.266285A488.740571 488.740571 0 0 0 374.491429-2.194286a491.373714 491.373714 0 0 0-59.099429 70.070857 8.411429 8.411429 0 0 1-14.848-1.974857 465.481143 465.481143 0 0 1-25.380571-159.012571 8.484571 8.484571 0 0 0-12.288-7.753143C107.008-22.820571 0.146286 132.681143 0.146286 312.612571c0 100.205714 31.670857 196.681143 88.137143 272.749715"  horiz-adv-x="1024" />

    
    <glyph glyph-name="xuebabang" unicode="&#58999;" d="M1237.376 670.72c12.544-6.528 20.864-22.848 20.864-41.28 0-18.368-8.32-34.752-20.864-41.152L640.768 329.6a24.448 24.448 0 0 0-22.848 0L21.312 588.16c-12.544 6.528-20.864 22.848-20.864 41.216 0 18.304 8.32 34.816 20.864 41.216L617.92 892.288a24.896 24.896 0 0 0 22.848 0l596.608-221.76v0.128z m-553.6 67.2l313.408-115.328a23.04 23.04 0 0 1 29.76 14.72 24.32 24.32 0 0 1-14.08 30.72l-313.408 115.2a23.04 23.04 0 0 1-29.76-14.656 24.32 24.32 0 0 1 14.08-30.72z m-49.408-513.28c9.728 0 19.264 2.304 27.968 6.528l391.36 174.4v-256.64c0-210.176-207.36-273.28-274.176-273.28H498.56c-89.152 0-283.52 63.104-283.52 273.28v256.64l391.232-174.464c8.96-4.288 18.432-6.464 28.032-6.464z m512.512 194.304v-312.32c0-19.904 16.768-34.88 39.168-34.88 22.464 0 39.296 14.976 39.296 34.816v312.32c0 19.968-16.832 34.88-39.232 34.88s-39.232-17.472-39.232-34.816z m0-409.792v-39.36c0-20.608 16.768-36.032 39.168-36.032 22.464 0 39.296 15.488 39.296 36.032v39.36c0 20.608-16.832 36.032-39.232 36.032s-39.232-17.92-39.232-36.032z"  horiz-adv-x="1280" />

    
    <glyph glyph-name="shanchu2" unicode="&#58995;" d="M585.289143 128V530.285714c0 46.811429 73.216 46.811429 73.216 0v-402.285714c0-46.884571-73.216-46.884571-73.216 0z m-219.794286 0V530.285714C365.494857 577.097143 438.857143 577.097143 438.857143 530.285714v-402.285714c0-46.884571-73.289143-46.884571-73.289143 0z m622.665143 585.142857h-183.076571v73.142857c0 60.562286-49.298286 109.714286-108.763429 109.714286H328.850286c-60.708571 0-109.860571-49.152-109.860572-109.714286v-73.142857H35.84c-46.957714 0-46.957714-73.142857 0-73.142857h952.32c46.957714 0 46.957714 73.142857 0 73.142857z m-695.881143 73.142857c0 19.456 17.115429 36.571429 36.571429 36.571429H696.32c19.456 0 35.474286-14.848 35.474286-36.571429v-73.142857h-439.588572v73.142857z m476.16-914.285714H255.634286c-60.708571 0-109.860571 49.078857-109.860572 109.714286V530.285714c0 21.723429 17.115429 36.571429 36.571429 36.571429s36.644571-14.848 36.644571-36.571429v-548.571428c0-19.382857 17.188571-36.571429 36.571429-36.571429h512.877714a37.668571 37.668571 0 0 1 36.571429 36.571429V529.115429c0 48.054857 73.289143 48.054857 73.289143 0V-18.285714c0-60.635429-49.225143-109.714286-109.860572-109.714286z"  horiz-adv-x="1024" />

    
    <glyph glyph-name="xiugai" unicode="&#58996;" d="M980.626286-71.68a39.424 39.424 0 0 0-33.572572-18.066286H75.702857a39.424 39.424 0 0 0-33.572571 18.066286 34.084571 34.084571 0 0 0 0 36.205714 39.350857 39.350857 0 0 0 33.572571 18.358857h871.277714a39.350857 39.350857 0 0 0 33.572572-18.066285 33.938286 33.938286 0 0 0 0.073143-36.498286zM536.429714 210.724571a268.141714 268.141714 0 0 0-146.285714-67.803428l-94.500571-7.899429c-45.787429-3.730286-70.948571-5.851429-75.702858-5.851428a37.010286 37.010286 0 0 0-25.965714 10.678857c-12.361143 12.288-12.361143 12.288-4.973714 101.449143l7.899428 94.354285c7.094857 54.564571 30.72 105.618286 67.876572 146.285715L612.352 829.147429c43.154286 40.96 110.884571 40.96 154.112 0l117.540571-117.467429c42.349714-42.422857 42.349714-111.177143 0-153.6L536.429714 210.724571z m296.155429 449.828572L714.971429 778.020571a36.571429 36.571429 0 0 1-51.2 0l-347.428572-347.136a193.462857 193.462857 0 0 1-46.811428-101.010285l-7.972572-94.281143-2.486857-30.573714 30.573714 2.486857 94.500572 7.899428a193.974857 193.974857 0 0 1 101.010285 46.811429l347.501715 347.136a36.571429 36.571429 0 0 1-0.146286 51.2h0.073143z"  horiz-adv-x="1024" />

    
    <glyph glyph-name="bianzu" unicode="&#58994;" d="M912.554667 38.4a53.76 53.76 0 0 0-53.674667-53.589333h-696.32a53.76 53.76 0 0 0-53.589333 53.674666V734.72a53.76 53.76 0 0 0 53.674666 53.76h529.834667V895.658667h-529.92A161.024 161.024 0 0 1 1.706667 734.72v-696.32c0-88.917333 72.021333-161.024 161.024-161.024h696.32a161.024 161.024 0 0 1 160.938666 161.109333V566.954667h-107.349333v-528.469334zM389.205333 340.906667L941.226667 892.842667l75.946666-75.946667L465.066667 264.96z"  horiz-adv-x="1024" />

    
    <glyph glyph-name="gouxuan" unicode="&#58993;" d="M0 896h1024v-1024H0zM960.448 622.016L876.8 703.168l-491.776-477.44L148.096 455.68 64.448 374.528l236.928-230.016-0.064-0.128 83.584-81.152 0.128 0.064 0.064-0.128 83.712 81.28-0.128 0.064z"  horiz-adv-x="1024" />

    
    <glyph glyph-name="zhongping" unicode="&#58990;" d="M0 384c0-282.763636 229.236364-512 512-512s512 229.236364 512 512S794.763636 896 512 896 0 666.763636 0 384zM1013.76 487.424C965.632 720.896 759.808 896 512 896 229.376 896 0 666.624 0 384c0-123.904 44.032-236.544 116.736-324.608A601.413818 601.413818 0 0 1 409.6-15.36c301.056 0 550.912 217.088 604.16 502.784zM368.64 465.92a20.526545 20.526545 0 0 0-20.48 20.48c0 45.056-36.864 81.92-81.92 81.92s-81.92-36.864-81.92-81.92c0-11.264-9.216-20.48-20.48-20.48a20.526545 20.526545 0 0 0-20.48 20.48 123.252364 123.252364 0 0 0 122.88 122.88A123.252364 123.252364 0 0 0 389.12 486.4c0-11.264-9.216-20.48-20.48-20.48z m491.52 0a20.526545 20.526545 0 0 0-20.48 20.48c0 45.056-36.864 81.92-81.92 81.92s-81.92-36.864-81.92-81.92c0-11.264-9.216-20.48-20.48-20.48a20.526545 20.526545 0 0 0-20.48 20.48 123.252364 123.252364 0 0 0 122.88 122.88 123.252364 123.252364 0 0 0 122.88-122.88c0-11.264-9.216-20.48-20.48-20.48zM788.48 179.2H235.52c-51.2 0-92.16 40.96-92.16 92.16s40.96 92.16 92.16 92.16h552.96c51.2 0 92.16-40.96 92.16-92.16s-40.96-92.16-92.16-92.16zM788.48 363.52c51.2 0 92.16-40.96 92.16-92.16s-40.96-92.16-92.16-92.16H235.52c-51.2 0-92.16 40.96-92.16 92.16s40.96 92.16 92.16 92.16h552.96m0 20.48H235.52a112.314182 112.314182 0 0 1-112.64-112.64 112.314182 112.314182 0 0 1 112.64-112.64h552.96a112.314182 112.314182 0 0 1 112.64 112.64A112.314182 112.314182 0 0 1 788.48 384zM757.76 353.28v-81.92h112.64-112.64v-81.92 163.84z m-95.604364 0v-81.92 81.92z m-98.304 0v-81.92 81.92z m-98.304 0v-81.92 81.92z m-98.304 0v-81.92 81.92z m-98.304 0v-81.92 81.92zM768 363.52h-20.48v-81.92h-77.824v81.92h-20.48v-81.92h-77.824v81.92h-20.48v-81.92h-77.824v81.92h-20.48v-81.92H374.784v81.92h-20.48v-81.92H276.48v81.92H256v-81.92H143.36v-20.48H256v-81.92h20.48v81.92h77.824v-81.92h20.48v81.92h77.824v-81.92h20.48v81.92h77.824v-81.92h20.48v81.92h77.824v-81.92h20.48v81.92h77.824v-81.92h20.48v81.92h112.64v20.48H768z"  horiz-adv-x="1024" />

    
    <glyph glyph-name="haoping" unicode="&#58991;" d="M0 384c0-282.763636 229.236364-512 512-512s512 229.236364 512 512S794.763636 896 512 896 0 666.763636 0 384zM1013.76 487.424C965.632 720.896 759.808 896 512 896 229.376 896 0 666.624 0 384c0-123.904 44.032-236.544 116.736-324.608A601.413818 601.413818 0 0 1 409.6-15.36c301.056 0 550.912 217.088 604.16 502.784zM512 117.76c-134.144 0-245.76 97.28-266.24 225.28a35.84 35.84 0 0 0 35.84 40.96h460.8a35.84 35.84 0 0 0 35.84-40.96c-20.48-128-132.096-225.28-266.24-225.28zM742.4 384h-460.8a35.84 35.84 0 0 1-35.84-40.96c1.024-7.168 2.048-14.336 4.096-21.504H773.12c2.048 7.168 3.072 14.336 4.096 21.504 4.096 21.504-13.312 40.96-34.816 40.96zM587.776 260.096c-30.72 0-58.368-15.36-75.776-38.912a91.694545 91.694545 0 0 1-75.776 38.912 92.439273 92.439273 0 0 1-92.16-83.968A267.450182 267.450182 0 0 1 512 117.76a267.450182 267.450182 0 0 1 167.936 58.368 92.439273 92.439273 0 0 1-92.16 83.968zM368.64 465.92a20.526545 20.526545 0 0 0-20.48 20.48c0 45.056-36.864 81.92-81.92 81.92s-81.92-36.864-81.92-81.92c0-11.264-9.216-20.48-20.48-20.48a20.526545 20.526545 0 0 0-20.48 20.48 123.252364 123.252364 0 0 0 122.88 122.88A123.252364 123.252364 0 0 0 389.12 486.4c0-11.264-9.216-20.48-20.48-20.48z m491.52 0a20.526545 20.526545 0 0 0-20.48 20.48c0 45.056-36.864 81.92-81.92 81.92s-81.92-36.864-81.92-81.92c0-11.264-9.216-20.48-20.48-20.48a20.526545 20.526545 0 0 0-20.48 20.48 123.252364 123.252364 0 0 0 122.88 122.88 123.252364 123.252364 0 0 0 122.88-122.88c0-11.264-9.216-20.48-20.48-20.48z"  horiz-adv-x="1024" />

    
    <glyph glyph-name="chaping" unicode="&#58992;" d="M0 384c0-282.763636 229.236364-512 512-512s512 229.236364 512 512S794.763636 896 512 896 0 666.763636 0 384zM1013.76 487.424C965.632 720.896 759.808 896 512 896 229.376 896 0 666.624 0 384c0-123.904 44.032-236.544 116.736-324.608A601.413818 601.413818 0 0 1 409.6-15.36c301.056 0 550.912 217.088 604.16 502.784zM204.8 312.32a92.16 92.16 0 1 1 184.32 0 92.16 92.16 0 0 1-184.32 0zM634.88 312.32a92.16 92.16 0 1 1 184.32 0 92.16 92.16 0 0 1-184.32 0zM601.088 82.944c-78.848 55.296-150.528 18.432-180.224-1.024a20.293818 20.293818 0 0 0-25.6 3.072 20.759273 20.759273 0 0 0 4.096 30.72c37.888 24.576 128 67.584 225.28 0 10.24-7.168 12.288-20.48 4.096-29.696-6.144-8.192-18.432-9.216-27.648-3.072zM875.52 408.576a112.593455 112.593455 0 0 0-138.24 79.872c-3.072 11.264 3.072 22.528 14.336 24.576 11.264 3.072 22.528-3.072 24.576-14.336a71.633455 71.633455 0 0 1 88.064-50.176c11.264 3.072 22.528-3.072 24.576-14.336a19.223273 19.223273 0 0 0-13.312-25.6z m-727.04 0a112.593455 112.593455 0 0 1 138.24 79.872c3.072 11.264-3.072 22.528-14.336 24.576-11.264 3.072-22.528-3.072-24.576-14.336a71.633455 71.633455 0 0 0-88.064-50.176c-11.264 3.072-22.528-3.072-24.576-14.336a19.223273 19.223273 0 0 1 13.312-25.6z"  horiz-adv-x="1024" />

    
    <glyph glyph-name="chapingweixuanzhong" unicode="&#58987;" d="M0 384c0-282.763636 229.236364-512 512-512s512 229.236364 512 512S794.763636 896 512 896 0 666.763636 0 384zM1013.76 487.424C965.632 720.896 759.808 896 512 896 229.376 896 0 666.624 0 384c0-123.904 44.032-236.544 116.736-324.608A601.413818 601.413818 0 0 1 409.6-15.36c301.056 0 550.912 217.088 604.16 502.784zM204.8 312.32a92.16 92.16 0 1 1 184.32 0 92.16 92.16 0 0 1-184.32 0zM634.88 312.32a92.16 92.16 0 1 1 184.32 0 92.16 92.16 0 0 1-184.32 0zM601.088 82.944c-78.848 55.296-150.528 18.432-180.224-1.024a20.293818 20.293818 0 0 0-25.6 3.072 20.759273 20.759273 0 0 0 4.096 30.72c37.888 24.576 128 67.584 225.28 0 10.24-7.168 12.288-20.48 4.096-29.696-6.144-8.192-18.432-9.216-27.648-3.072zM875.52 408.576a112.593455 112.593455 0 0 0-138.24 79.872c-3.072 11.264 3.072 22.528 14.336 24.576 11.264 3.072 22.528-3.072 24.576-14.336a71.633455 71.633455 0 0 1 88.064-50.176c11.264 3.072 22.528-3.072 24.576-14.336a19.223273 19.223273 0 0 0-13.312-25.6z m-727.04 0a112.593455 112.593455 0 0 1 138.24 79.872c3.072 11.264-3.072 22.528-14.336 24.576-11.264 3.072-22.528-3.072-24.576-14.336a71.633455 71.633455 0 0 0-88.064-50.176c-11.264 3.072-22.528-3.072-24.576-14.336a19.223273 19.223273 0 0 1 13.312-25.6z"  horiz-adv-x="1024" />

    
    <glyph glyph-name="haopingweixuanzhong" unicode="&#58988;" d="M0 384c0-282.763636 229.236364-512 512-512s512 229.236364 512 512S794.763636 896 512 896 0 666.763636 0 384zM1013.76 487.424C965.632 720.896 759.808 896 512 896 229.376 896 0 666.624 0 384c0-123.904 44.032-236.544 116.736-324.608A601.413818 601.413818 0 0 1 409.6-15.36c301.056 0 550.912 217.088 604.16 502.784zM512 117.76c-134.144 0-245.76 97.28-266.24 225.28a35.84 35.84 0 0 0 35.84 40.96h460.8a35.84 35.84 0 0 0 35.84-40.96c-20.48-128-132.096-225.28-266.24-225.28zM742.4 384h-460.8a35.84 35.84 0 0 1-35.84-40.96c1.024-7.168 2.048-14.336 4.096-21.504H773.12c2.048 7.168 3.072 14.336 4.096 21.504 4.096 21.504-13.312 40.96-34.816 40.96zM587.776 260.096c-30.72 0-58.368-15.36-75.776-38.912a91.694545 91.694545 0 0 1-75.776 38.912 92.439273 92.439273 0 0 1-92.16-83.968A267.450182 267.450182 0 0 1 512 117.76a267.450182 267.450182 0 0 1 167.936 58.368 92.439273 92.439273 0 0 1-92.16 83.968zM368.64 465.92a20.526545 20.526545 0 0 0-20.48 20.48c0 45.056-36.864 81.92-81.92 81.92s-81.92-36.864-81.92-81.92c0-11.264-9.216-20.48-20.48-20.48a20.526545 20.526545 0 0 0-20.48 20.48 123.252364 123.252364 0 0 0 122.88 122.88A123.252364 123.252364 0 0 0 389.12 486.4c0-11.264-9.216-20.48-20.48-20.48z m491.52 0a20.526545 20.526545 0 0 0-20.48 20.48c0 45.056-36.864 81.92-81.92 81.92s-81.92-36.864-81.92-81.92c0-11.264-9.216-20.48-20.48-20.48a20.526545 20.526545 0 0 0-20.48 20.48 123.252364 123.252364 0 0 0 122.88 122.88 123.252364 123.252364 0 0 0 122.88-122.88c0-11.264-9.216-20.48-20.48-20.48z"  horiz-adv-x="1024" />

    
    <glyph glyph-name="zhongpingweixuanzhong" unicode="&#58989;" d="M0 384c0-282.763636 229.236364-512 512-512s512 229.236364 512 512S794.763636 896 512 896 0 666.763636 0 384zM1013.76 487.424C965.632 720.896 759.808 896 512 896 229.376 896 0 666.624 0 384c0-123.904 44.032-236.544 116.736-324.608A601.413818 601.413818 0 0 1 409.6-15.36c301.056 0 550.912 217.088 604.16 502.784zM368.64 465.92a20.526545 20.526545 0 0 0-20.48 20.48c0 45.056-36.864 81.92-81.92 81.92s-81.92-36.864-81.92-81.92c0-11.264-9.216-20.48-20.48-20.48a20.526545 20.526545 0 0 0-20.48 20.48 123.252364 123.252364 0 0 0 122.88 122.88A123.252364 123.252364 0 0 0 389.12 486.4c0-11.264-9.216-20.48-20.48-20.48z m491.52 0a20.526545 20.526545 0 0 0-20.48 20.48c0 45.056-36.864 81.92-81.92 81.92s-81.92-36.864-81.92-81.92c0-11.264-9.216-20.48-20.48-20.48a20.526545 20.526545 0 0 0-20.48 20.48 123.252364 123.252364 0 0 0 122.88 122.88 123.252364 123.252364 0 0 0 122.88-122.88c0-11.264-9.216-20.48-20.48-20.48zM788.48 179.2H235.52c-51.2 0-92.16 40.96-92.16 92.16s40.96 92.16 92.16 92.16h552.96c51.2 0 92.16-40.96 92.16-92.16s-40.96-92.16-92.16-92.16zM788.48 363.52c51.2 0 92.16-40.96 92.16-92.16s-40.96-92.16-92.16-92.16H235.52c-51.2 0-92.16 40.96-92.16 92.16s40.96 92.16 92.16 92.16h552.96m0 20.48H235.52a112.314182 112.314182 0 0 1-112.64-112.64 112.314182 112.314182 0 0 1 112.64-112.64h552.96a112.314182 112.314182 0 0 1 112.64 112.64A112.314182 112.314182 0 0 1 788.48 384zM757.76 353.28v-81.92h112.64-112.64v-81.92 163.84z m-95.604364 0v-81.92 81.92z m-98.304 0v-81.92 81.92z m-98.304 0v-81.92 81.92z m-98.304 0v-81.92 81.92z m-98.304 0v-81.92 81.92zM768 363.52h-20.48v-81.92h-77.824v81.92h-20.48v-81.92h-77.824v81.92h-20.48v-81.92h-77.824v81.92h-20.48v-81.92H374.784v81.92h-20.48v-81.92H276.48v81.92H256v-81.92H143.36v-20.48H256v-81.92h20.48v81.92h77.824v-81.92h20.48v81.92h77.824v-81.92h20.48v81.92h77.824v-81.92h20.48v81.92h77.824v-81.92h20.48v81.92h77.824v-81.92h20.48v81.92h112.64v20.48H768z"  horiz-adv-x="1024" />

    
    <glyph glyph-name="shaixuan" unicode="&#58986;" d="M897.088 745.792a62.784 62.784 0 0 0 39.232-111.808L653.504 407.68v-417.664c0-9.344-2.048-18.56-6.08-26.88l-0.32-0.768a62.784 62.784 0 0 0-84.032-28.8l-153.664 75.456a68.288 68.288 0 0 0-38.208 61.248v337.28L86.4 633.92a62.848 62.848 0 0 0-23.808 48.512v0.64c0 34.688 28.16 62.784 62.848 62.784h771.648z m-54.464-81.92H180.224l242.944-192.96c18.688-14.848 29.696-37.376 29.952-61.248v-330.88l118.464-58.112V409.024c0 23.744 10.752 46.336 29.184 61.376l0.576 0.448 241.28 193.024z m44.8-553.28a40.96 40.96 0 0 0 0-81.92h-147.392a40.96 40.96 0 1 0 0 81.92h147.456z m0 139.264a40.96 40.96 0 0 0 0-81.92h-147.392a40.96 40.96 0 0 0 0 81.92h147.456z m0 136.576a40.96 40.96 0 0 0 0-81.92h-147.392a40.96 40.96 0 1 0 0 81.92h147.456z"  horiz-adv-x="1024" />

    
    <glyph glyph-name="pingfenweixuanzhong" unicode="&#58984;" d="M725.085091-14.615273a87.04 87.04 0 0 0-31.790546 6.097455l-179.758545 72.471273-179.432727-72.471273a84.619636 84.619636 0 0 0-116.084364 84.619636l13.498182 192.977455-124.555636 148.247272a84.619636 84.619636 0 0 0 44.357818 136.424728l187.857454 46.731636 102.586182 164.165818a84.852364 84.852364 0 0 0 143.546182 0l102.539636-164.165818 187.904-46.731636a84.619636 84.619636 0 0 0 44.311273-136.378182l-124.555636-148.293818 13.498181-192.977455a84.247273 84.247273 0 0 0-34.490181-74.472727c-14.289455-10.612364-31.650909-16.290909-49.431273-16.244364z"  horiz-adv-x="1024" />

    
    <glyph glyph-name="pingfenxuanzhong" unicode="&#58985;" d="M725.085091-14.615273a87.04 87.04 0 0 0-31.790546 6.097455l-179.758545 72.471273-179.432727-72.471273a84.619636 84.619636 0 0 0-116.084364 84.619636l13.498182 192.977455-124.555636 148.247272a84.619636 84.619636 0 0 0 44.357818 136.424728l187.857454 46.731636 102.586182 164.165818a84.852364 84.852364 0 0 0 143.546182 0l102.539636-164.165818 187.904-46.731636a84.619636 84.619636 0 0 0 44.311273-136.378182l-124.555636-148.293818 13.498181-192.977455a84.247273 84.247273 0 0 0-34.490181-74.472727c-14.289455-10.612364-31.650909-16.290909-49.431273-16.244364z"  horiz-adv-x="1024" />

    
    <glyph glyph-name="jiedian" unicode="&#58983;" d="M512 384m-512 0a512 512 0 1 1 1024 0 512 512 0 1 1-1024 0ZM512 384m-256 0a256 256 0 1 1 512 0 256 256 0 1 1-512 0Z"  horiz-adv-x="1024" />

    
    <glyph glyph-name="danxuanweixuanzhong" unicode="&#58982;" d="M512 896a512 512 0 1 0 0-1024A512 512 0 0 0 512 896z m0-73.142857a438.857143 438.857143 0 1 1 0-877.714286A438.857143 438.857143 0 0 1 512 822.857143z"  horiz-adv-x="1024" />

    
    <glyph glyph-name="danxuanxuanzhong" unicode="&#58981;" d="M512 896a512 512 0 1 0 0-1024A512 512 0 0 0 512 896z m155.136-356.864A219.428571 219.428571 0 1 1 356.937143 228.937143 219.428571 219.428571 0 0 1 667.062857 539.062857z"  horiz-adv-x="1024" />

    
    <glyph glyph-name="shanchu1" unicode="&#58980;" d="M440.768 810.688H583.68a32 32 0 0 1 0 64H440.768a32 32 0 0 1 0-64z m511.104-49.536H72.128a32 32 0 0 1 0-64h879.744a32 32 0 1 1 0 64zM866.56 637.44a32 32 0 0 1-32-32v-655.808H189.44V605.44a32 32 0 0 1-64 0v-687.808a32 32 0 0 1 32-32h709.12a32 32 0 0 1 32 32V605.44a32 32 0 0 1-32 32zM654.912 42.688V530.752a32 32 0 1 1-64 0v-488.064a32 32 0 1 1 64 0z m-224.832 0V530.752a32 32 0 0 1-64 0v-488.064a32 32 0 1 1 64 0z"  horiz-adv-x="1024" />

    
    <glyph glyph-name="xingzhuang" unicode="&#58978;" d="M468.500693 881.877333a68.394667 68.394667 0 0 0 83.242667 0c47.573333-40.021333 101.12-72.96 157.013333-97.706666 57.045333-17.621333 115.328-32.938667 174.805334-42.368 27.733333-5.504 48.213333-28.416 53.76-57.258667l0.938666-6.272-1.194666-1.194667 1.450666-51.114666c0.853333-51.114667 0.725333-138.794667-5.034666-254.890667C894.228693 46.208 652.820693-128 511.338027-128 369.812693-128 85.56736 119.168 85.56736 375.765333l0.981333 184.832C87.23136 628.181333 87.956693 677.12 87.956693 677.12c1.194667 31.786667 23.765333 58.88 53.504 63.573333a576.554667 576.554667 0 0 1 170.069334 44.714667A396.928 396.928 0 0 1 468.500693 881.877333z m0.256-384.768c-11.349333-22.4-23.082667-45.226667-35.754666-68.522666H308.500693v-44.8H408.084693a1524.181333 1524.181333 0 0 0-43.434666-72.106667c40.277333-12.586667 80.554667-27.349333 120.405333-43.946667-45.269333-31.36-104.576-47.018667-177.92-47.018666l27.605333-43.477334c81.92 2.261333 148.48 25.088 199.637334 68.992a1385.984 1385.984 0 0 0 137.6-71.253333l32.128 41.258667a1544.490667 1544.490667 0 0 1-135.765334 64.938666c20.352 26.026667 39.381333 60.032 57.002667 102.613334h86.016v44.8H489.15136l28.501333 53.76-48.853333 14.762666z m104.533334-113.322666c-13.568-32.256-30.762667-60.501333-51.626667-83.797334a1019.605333 1019.605333 0 0 1-90.453333 30.037334c9.941333 15.658667 20.778667 33.578667 32.554666 53.76h109.525334z m-57.002667 212.352l-53.418667-8.96c6.784-10.752 13.098667-21.973333 18.56-34.517334H313.91936v-103.04h48V507.434667h294.656v-58.24h48V552.661333h-169.728a603.264 603.264 0 0 1-18.56 43.477334z"  horiz-adv-x="1024" />

    
    <glyph glyph-name="xindaifen" unicode="&#58976;" d="M935.4752 104.5504c-364.544 52.7872-709.5296 130.2528-699.5456 218.112C243.712 389.632 495.5136 394.24 483.4816 428.9024c-12.8 37.12-373.0944 45.056-389.9904 108.1344-16.0256 59.6992 214.8864 69.6832 228.9664 101.2224 11.264 25.8048-141.056 40.704-225.0752 46.2848a509.7472 509.7472 0 0 1 413.3888-807.936c165.1712 0 337.6128 87.296 424.704 227.9424M484.7104 338.2784c-28.5184-6.8096-26.4192-24.6272 5.6832-32.7168 58.5216-16.7936 292.096-53.6576 509.0816-64.256 13.6704 46.08 21.1456 94.464 21.1456 145.152C1020.6208 667.7504 792.2688 896 510.7712 896A508.8768 508.8768 0 0 1 109.056 699.904c122.5728-2.4576 343.3472-12.8 359.8336-55.3984 22.8864-58.7264-232.1408-56.7296-221.0816-92.8256 12.3904-40.704 424.1408-41.6768 443.4432-118.9376 11.6224-46.08-86.528-65.6896-206.5408-94.464"  horiz-adv-x="1024" />

    
    <glyph glyph-name="lizhifen" unicode="&#58977;" d="M398.933333 490.112l254.464-145.664a30.933333 30.933333 0 0 0 11.349334-42.453333l-239.488-411.306667a30.933333 30.933333 0 0 0-49.92-4.992c-58.026667 65.28-91.221333 100.266667-99.669334 105.088-8.32 4.821333-54.058667 15.189333-137.216 31.146667a30.933333 30.933333 0 0 0-20.906666 45.994666l239.274666 410.88a30.933333 30.933333 0 0 0 42.112 11.264zM606.890667 490.069333l-254.421334-145.664a30.933333 30.933333 0 0 1-11.392-42.410666l238.933334-410.325334a30.933333 30.933333 0 0 1 50.432-4.352c51.157333 60.501333 80.853333 93.141333 89.088 97.877334 8.490667 4.864 58.112 16.853333 148.906666 36.053333a30.933333 30.933333 0 0 1 20.309334 45.866667l-239.658667 411.648a30.933333 30.933333 0 0 1-42.154667 11.264zM85.376 484.096c0-227.498667 186.026667-411.904 415.488-411.904 229.418667 0 415.445333 184.405333 415.445333 411.904C916.309333 711.552 730.282667 896 500.864 896 271.36 896 85.333333 711.552 85.333333 484.096zM502.442667 331.861333c47.829333-2.474667 103.466667 43.306667 166.869333 137.386667a97.92 97.92 0 0 1-128.170667 140.544l-40.234666-22.016-34.688 19.2a97.92 97.92 0 0 1-127.786667-141.568c60.16-86.528 114.816-131.029333 164.010667-133.546667z"  horiz-adv-x="1024" />

    
    <glyph glyph-name="dianhua1" unicode="&#58975;" d="M664.746667 195.413333l27.989333 17.408a261.973333 261.973333 0 0 0 28.928 15.530667c63.402667 28.928 119.296 8.533333 193.194667-77.824 45.738667-53.589333 59.221333-100.949333 41.557333-143.274667-13.141333-31.573333-38.4-53.333333-83.626667-80.213333-2.816-1.706667-28.757333-16.896-35.498666-20.992-104.96-64.853333-345.6 83.541333-518.656 336.981333C144.896 497.066667 100.096 767.914667 206.506667 833.706667l13.994666 8.96 15.274667 9.813333c53.76 34.816 88.234667 48.64 129.024 41.813333 40.789333-6.997333 75.434667-37.12 104.789333-92.074666 61.866667-116.224 48.213333-171.349333-31.317333-221.525334-5.717333-3.669333-26.026667-15.872-27.989333-17.066666-19.456-12.117333 13.568-93.013333 90.453333-205.397334 77.653333-113.664 142.592-175.957333 163.84-162.816h0.170667z"  horiz-adv-x="1024" />

    
    <glyph glyph-name="xuanzhong" unicode="&#58973;" d="M804.571429 896a219.428571 219.428571 0 0 0 219.428571-219.428571v-585.142858a219.428571 219.428571 0 0 0-219.428571-219.428571H219.428571a219.428571 219.428571 0 0 0-219.428571 219.428571V676.571429a219.428571 219.428571 0 0 0 219.428571 219.428571h585.142858z m38.619428-256L388.681143 185.417143 173.860571 400.237714l-45.860571-45.860571 260.681143-260.681143 500.443428 500.443429-45.933714 45.860571z"  horiz-adv-x="1024" />

    
    <glyph glyph-name="weixuanzhong" unicode="&#58974;" d="M832 896A192 192 0 0 0 1024 704v-640A192 192 0 0 0 832-128h-640A192 192 0 0 0 0 64v640A192 192 0 0 0 192 896h640z m0-64h-640A128 128 0 0 1 64.365714 713.508571l-0.365714-9.508571v-640a128 128 0 0 1 118.491429-127.634286l9.508571-0.365714h640a128 128 0 0 1 127.634286 118.491429l0.365714 9.508571v640A128 128 0 0 1 841.508571 831.634286l-9.508571 0.365714z"  horiz-adv-x="1024" />

    
    <glyph glyph-name="yinsitishi" unicode="&#58972;" d="M501.134222-95.573333c-145.351111 0-415.630222 221.184-415.630222 430.364444V751.502222l41.301333 0.625778c0.853333 0 93.127111 1.991111 188.302223 40.391111C412.785778 832 475.761778 877.283556 476.330667 877.795556l24.689777 17.863111 24.860445-17.863111c0.568889-0.455111 63.544889-45.738667 161.223111-85.219556 95.175111-38.4 187.448889-40.391111 188.416-40.391111l41.130667-0.625778 0.170666-416.711111c0-209.180444-270.279111-430.421333-415.687111-430.421333zM169.415111 671.516444v-336.782222c0-161.735111 235.406222-346.908444 331.662222-346.908444 96.312889 0 331.719111 185.173333 331.719111 346.908444v336.782222a678.001778 678.001778 0 0 0-177.265777 43.633778A980.48 980.48 0 0 0 501.191111 793.827556a979.057778 979.057778 0 0 0-154.396444-78.620445c-69.404444-28.046222-136.192-39.196444-177.322667-43.633778z m309.475556-493.397333l-176.469334 149.617778 54.215111 63.488 113.208889-95.857778 214.926223 246.272 63.431111-54.784-269.312-308.736z"  horiz-adv-x="1024" />

    
    <glyph glyph-name="yijianpaiban" unicode="&#58966;" d="M883.541333 272.839111a26.112 26.112 0 0 0 26.112-26.112v-234.837333a26.112 26.112 0 0 0-26.112-26.112H83.057778A26.055111 26.055111 0 0 0 56.888889 11.776v234.951111a26.112 26.112 0 0 0 26.112 26.168889zM883.939556 839.111111c14.506667 0 26.282667-11.776 26.282666-26.339555V599.04h-52.622222V787.171556h-256.682667v-386.844445h46.193778v-52.622222H574.577778a26.737778 26.737778 0 0 0-26.282667 26.339555V812.771556C548.295111 827.733333 560.355556 839.111111 574.577778 839.111111zM448.056889 555.633778a26.112 26.112 0 0 0 26.112-26.055111v-155.591111a26.112 26.112 0 0 0-26.112-26.112H83.057778A26.055111 26.055111 0 0 0 56.888889 373.987556V529.464889a26.112 26.112 0 0 0 26.112 26.168889z m247.580444 131.640889a19.626667 19.626667 0 0 0 22.186667-4.266667l185.059556-185.002667c5.973333-5.973333 9.386667-14.392889 5.973333-22.357333-3.413333-8.248889-11.946667-12.060444-20.48-12.003556h-55.921778l31.288889-73.898666a18.773333 18.773333 0 0 0 0-15.644445 18.773333 18.773333 0 0 0-10.524444-10.808889l-32.142223-13.653333a18.773333 18.773333 0 0 0-15.644444 0 20.593778 20.593778 0 0 0-10.808889 10.524445l-29.582222 69.916444-47.217778-47.217778c-5.916444-5.973333-17.749333-11.719111-25.429333-6.030222-7.168 5.233778-9.272889 13.994667-9.272889 22.528V668.785778a19.342222 19.342222 0 0 0 12.515555 18.488889zM448.170667 839.111111a26.055111 26.055111 0 0 0 25.998222-26.112v-155.591111a26.112 26.112 0 0 0-26.112-26.112H83.057778A26.168889 26.168889 0 0 0 56.888889 657.464889V812.942222A26.055111 26.055111 0 0 0 83.000889 839.111111z"  horiz-adv-x="1024" />

    
    <glyph glyph-name="xiumituwen" unicode="&#58967;" d="M539.477333 782.222222c234.780444 0 425.756444-190.976 425.756445-425.699555 0-234.780444-190.976-425.756444-425.756445-425.756445C304.753778-69.233778 113.777778 121.742222 113.777778 356.522667 113.777778 591.246222 304.753778 782.222222 539.477333 782.222222z m0-75.093333a350.947556 350.947556 0 0 1-350.549333-350.606222 350.947556 350.947556 0 0 1 350.549333-350.606223 350.947556 350.947556 0 0 1 350.606223 350.606223 350.947556 350.947556 0 0 1-350.606223 350.549333z m157.354667-126.065778l8.362667-54.556444-124.302223-3.128889v-22.129778h146.887112v-58.766222h-90.168889l111.672889-58.709334-48.241778-56.718222-120.149334 78.677334v-47.672889H491.178667v46.648889L398.336 346.055111h270.677333l-24.120889-74.012444h92.330667c-6.257778-57.173333-11.548444-96.597333-42.040889-151.608889l-94.947555 11.491555 17.806222 14.677334c13.653333 18.375111 20.48 40.96 24.689778 63.431111H543.118222l24.064 69.802666H503.751111l-53.987555-159.402666-77.596445 16.725333 48.753778 142.677333h-40.96v54.613334l-11.491556-7.395556-48.355555 56.718222 115.939555 58.709334H344.803556V501.248h146.375111v20.024889l-119.580445-2.673778-7.395555 55.182222 332.629333 7.281778z"  horiz-adv-x="1024" />

    
    <glyph glyph-name="shipinshangchuan" unicode="&#58968;" d="M486.001778 634.083556L360.049778 782.222222H217.486222l125.895111-148.138666h142.620445z m370.346666 0L730.453333 782.222222h-142.620444l125.952-148.138666h142.563555z m-185.173333 0L545.28 782.222222H402.659556l125.952-148.138666h142.563555zM910.108444 782.222222h-137.102222l125.952-148.138666h66.673778V726.641778A54.613333 54.613333 0 0 1 910.051556 782.222222zM174.819556 782.222222h-5.518223A54.613333 54.613333 0 0 1 113.777778 726.641778v-92.558222h187.050666L174.876444 782.222222zM113.777778 22.983111a54.613333 54.613333 0 0 1 55.580444-55.580444h740.693334a54.613333 54.613333 0 0 1 55.580444 55.580444V596.992H113.777778v-574.008889z m296.277333 407.381333c0 31.459556 25.941333 46.307556 55.580445 46.307556 9.272889 0 20.366222-1.877333 29.582222-7.395556l211.171555-122.254222a52.451556 52.451556 0 0 0 0-92.558222l-211.114666-122.254222a54.328889 54.328889 0 0 0-29.639111-7.395556c-29.582222 0-55.580444 14.791111-55.580445 46.307556V430.364444z"  horiz-adv-x="1024" />

    
    <glyph glyph-name="weixinzhuaqu" unicode="&#58969;" d="M552.846222 457.614222c107.235556 68.152889 254.293333 54.158222 344.632889-32.768 81.237333-78.222222 86.471111-182.215111 12.8-267.377778-12.515556-14.449778-28.216889-25.998222-40.732444-40.391111a31.175111 31.175111 0 0 1-6.542223-23.153777c3.640889-19.114667 10.183111-37.660444 15.587556-56.490667l-4.266667-3.128889c-19.626667 10.638222-39.822222 20.366222-58.766222 32.142222-13.937778 8.647111-26.737778 9.841778-42.666667 5.575111-76.629333-20.650667-149.560889-9.216-216.974222 31.573334-140.344889 84.935111-141.539556 265.898667-3.072 354.019555z m-356.124444 188.359111c131.868444 118.385778 358.968889 102.172444 471.836444-34.417777 18.887111-22.812444 29.923556-52.224 43.918222-78.904889 2.844444-5.404444 2.958222-12.231111 4.892445-21.048889-86.471111 4.664889-159.971556-16.611556-217.998222-77.539556-58.595556-61.553778-76.401778-134.997333-54.613334-223.175111-30.037333 1.991111-57.856-0.967111-82.488889 6.542222-40.846222 12.458667-74.524444 1.479111-108.430222-18.659555-14.449778-8.533333-30.151111-15.075556-49.550222-19.342222 6.940444 20.935111 13.027556 42.154667 21.048889 62.577777 6.542222 16.497778 4.096 26.737778-11.036445 38.229334-46.421333 35.157333-82.033778 79.473778-94.492444 137.500444-19.512889 90.624 8.874667 167.082667 76.970667 228.238222z m593.92-270.563555c-16.156444 0.113778-30.549333-12.913778-30.151111-27.306667 0.341333-13.482667 14.506667-26.225778 29.354666-26.453333 16.782222-0.284444 31.345778 11.377778 32.028445 25.6 0.682667 15.928889-12.686222 27.989333-31.175111 28.16z m-164.636445 0c-16.384 0-28.387556-10.752-28.842666-25.884445-0.568889-15.416889 12.743111-28.103111 29.127111-27.875555 16.725333 0.284444 31.459556 12.344889 31.971555 26.168889 0.512 14.904889-14.222222 27.477333-32.256 27.534222zM525.027556 592.896c-22.698667-0.341333-40.277333-15.701333-40.106667-34.986667 0.170667-20.081778 18.488889-34.702222 42.780444-34.133333 21.048889 0.455111 33.393778 13.880889 32.938667 35.84-0.512 21.219556-13.653333 33.564444-35.612444 33.28z m-208.554667 0c-22.926222-0.170667-40.504889-14.848-40.732445-34.019556-0.284444-20.138667 17.464889-35.214222 41.415112-35.100444 21.105778 0 35.271111 13.482667 35.555555 33.792 0.341333 20.878222-14.677333 35.498667-36.238222 35.271111z"  horiz-adv-x="1024" />

    
    <glyph glyph-name="tupianshangchuan" unicode="&#58970;" d="M883.882667 782.222222H193.422222A79.644444 79.644444 0 0 1 113.777778 702.577778v-584.248889a79.644444 79.644444 0 0 1 79.644444-79.644445h690.460445a79.644444 79.644444 0 0 1 79.644444 79.644445V702.577778a79.644444 79.644444 0 0 1-79.644444 79.644444zM698.026667 676.010667a79.644444 79.644444 0 1 0 0-159.288889 79.644444 79.644444 0 0 0 0 159.288889zM193.422222 144.896s56.547556 329.784889 188.017778 329.784889c128.853333 0 161.735111-230.627556 252.472889-230.627556 57.173333 0 51.2 104.106667 142.051555 104.106667 65.080889 0 106.496-203.264 106.496-203.264H193.422222z"  horiz-adv-x="1024" />

    
    <glyph glyph-name="tengxunshipin" unicode="&#58971;" d="M539.761778 391.395556l-171.235556 129.991111c-22.243556 19.000889-41.244444 9.500444-41.244444-22.186667v-285.468444c0-28.501333 19.000889-38.058667 41.187555-19.000889l171.235556 130.048a37.319111 37.319111 0 0 1 12.743111 50.688c-3.185778 9.557333-6.371556 12.686222-12.686222 15.928889z m386.844444 57.059555c-177.550222 171.235556-409.031111 272.725333-548.636444 326.656a117.532444 117.532444 0 0 1-149.048889-66.616889c-3.128889-6.314667-3.128889-12.686222-6.314667-19.000889v-12.686222c129.991111-41.244444 339.342222-120.547556 501.077334-247.409778 34.872889-25.372444 44.373333-76.117333 19.000888-110.990222-6.314667-9.500444-12.686222-15.872-22.186666-19.000889a1836.088889 1836.088889 0 0 0-497.891556-250.595555l3.185778-9.500445c9.500444-63.431111 69.745778-104.675556 133.176889-95.118222 9.500444 0 15.872 3.128889 25.372444 6.314667a1942.300444 1942.300444 0 0 1 542.321778 329.841777c47.559111 41.244444 53.930667 114.176 12.686222 161.735112-6.371556 0-9.500444 3.185778-12.686222 6.371555zM225.792 676.807111h-3.128889c-63.431111 19.000889-130.048-12.686222-139.548444-66.616889a1197.511111 1197.511111 0 0 1 0-497.948444c12.686222-53.873778 82.488889-88.746667 142.734222-66.56h3.128889c-38.058667 209.294222-38.058667 421.774222-3.128889 631.125333z"  horiz-adv-x="1024" />

    
    <glyph glyph-name="pingtai" unicode="&#59222;" d="M1910.848 896C2198.656 896 2432 666.752 2432 384s-233.344-512-521.152-512H521.152C233.344-128 0 101.24800000000005 0 384s233.344 512 521.152 512h1389.696z m0-56.896H521.152C265.28 839.104 57.92 635.328 57.92 384c0-246.592 199.68-447.36 448.768-454.912l14.464-0.192h1389.696c255.872 0 463.232 203.776 463.232 455.104 0 246.592-199.68 447.36-448.768 454.912L1910.848 839.04zM910.016 121.60000000000002V346.17600000000004h260.096v43.776h-260.096V629.76h235.968v44.416h-512.64v-44.416h229.696v-239.808H608v-43.776h255.04v-224.64h46.976zM1036.8 425.472c31.104 48.256 56.448 97.088 75.52 147.2l-41.856 19.648a833.472 833.472 0 0 0-74.24-145.92l40.576-20.928z m-300.096-2.56l42.56 20.992a1479.296 1479.296 0 0 1-68.544 145.28l-42.496-20.928c24.064-42.56 46.912-90.752 68.48-145.28z m1024.64-20.928l44.416 21.568c-46.976 76.8-97.728 147.2-152.32 210.688l-41.216-19.712c25.408-29.184 50.112-61.504 74.24-95.808-109.12-10.112-224.576-18.368-346.368-23.424 57.088 46.912 114.816 111.616 171.904 192.832L1465.152 704c-82.56-121.152-151.68-191.616-207.488-210.624l8.896-43.136c164.928 6.336 314.048 15.232 447.872 27.264 15.232-24.128 31.104-48.832 46.976-75.52z m-403.52-281.664v31.744h331.2v-31.744h46.272V384.896h-423.744v-264.576h46.272z m331.2 75.52h-331.2V341.12h331.2v-145.28z"  horiz-adv-x="2432" />

    
    <glyph glyph-name="zhezhengdingbiaoqian" unicode="&#59221;" d="M1910.848 896C2198.656 896 2432 666.752 2432 384s-233.344-512-521.152-512H521.152C233.344-128 0 101.248 0 384s233.344 512 521.152 512h1389.696z m0-56.896H521.152C265.28 839.104 57.92 635.328 57.92 384c0-246.592 199.68-447.36 448.768-454.912l14.464-0.192h1389.696c255.872 0 463.232 203.776 463.232 455.104 0 246.592-199.68 447.36-448.768 454.912L1910.848 839.04zM525.44 121.6c34.56 0 51.84 19.84 51.84 58.24V360.32c20.48 9.6 40.32 19.84 60.8 30.72v46.72c-19.84-11.52-40.32-22.4-60.8-32.64V542.72h58.24v40.32h-58.24V700.8h-44.8v-117.76H464v-40.32h68.48v-156.8c-23.68-8.96-48-17.28-72.96-24.32l10.88-44.16c20.48 7.04 40.96 14.72 62.08 23.04v-150.4c0-20.48-7.04-30.72-21.12-30.72-15.36 0-30.72 1.28-47.36 2.56l9.6-40.32h51.84zM424.32 568.96l32 32c-24.32 30.08-53.76 60.16-88.96 90.88l-32.64-31.36c38.4-32 67.84-62.72 89.6-91.52z m414.72-454.4V452.48h62.08v41.6h-187.52V616.32c64 3.84 122.24 16 174.72 35.2l-21.12 39.04c-58.24-23.04-123.52-35.84-196.48-37.12v-246.4c-3.2-108.8-23.04-194.56-60.16-256l31.36-33.28c44.8 72.32 68.48 168.96 71.68 289.28v45.44h81.92v-337.92h43.52z m-428.16 300.8l32 32c-24.32 30.72-55.04 60.8-90.88 91.52l-32-31.36c38.4-32 69.12-62.72 90.88-92.16z m-42.24-294.4c26.88 72.32 51.84 149.76 74.24 232.32l-40.32 15.36c-21.76-78.08-47.36-154.24-76.8-229.12l42.88-18.56z m1153.28-5.12l26.24 38.4c-53.12 30.72-98.56 74.24-136.96 130.56 46.08 72.96 71.04 163.2 74.24 269.44h48.64v45.44H1337.6c7.68 30.72 14.72 64 20.48 99.2L1312.64 704c-17.28-118.4-50.56-218.24-100.48-300.16l26.24-34.56c17.28 26.88 33.28 55.04 48 85.76 19.2-63.36 43.52-119.68 72.32-168.32-42.24-56.32-100.48-100.48-176-132.48l28.16-37.76c71.04 32.64 128.64 76.16 172.8 130.56 38.4-55.68 84.48-99.2 138.24-131.2z m-553.6 49.28c104.32 23.04 195.2 48.64 273.28 76.8v42.88c-30.72-10.24-62.08-20.48-95.36-30.08V418.56h73.6v43.52h-73.6V599.68h97.92v45.44h-270.08v-45.44h127.36v-357.76c-19.84-5.12-40.32-10.24-61.44-15.36v288h-42.88v-298.24c-13.44-2.56-26.88-5.76-40.96-8.96l12.16-42.24z m416 162.56c-29.44 52.48-54.4 114.56-73.6 184.96 4.48 13.44 8.96 27.52 14.08 41.6h115.2c-1.92-87.68-20.48-163.2-55.68-226.56z m246.4 139.52c23.04 35.84 42.88 75.52 60.8 119.68h138.88v42.88h-123.52c6.4 20.48 12.8 41.6 19.2 64l-44.8 8.96c-17.92-77.44-47.36-147.84-88.32-211.84l37.76-23.68z m376.96-345.6c39.04 0 58.88 19.2 58.88 57.6V617.6h114.56v44.16h-328.32v-44.16h167.04v-426.88c0-18.56-9.6-28.16-28.16-28.16-26.88 0-55.68 1.28-85.12 3.2l9.6-44.16h91.52z m-304 12.16c56.32 15.36 105.6 34.56 147.84 57.6l-7.68 40.96c-30.72-17.92-62.08-32.64-93.44-44.16V338.56h91.52v42.24h-91.52V459.52h68.48v41.6h-157.44v-41.6h43.52v-78.72h-90.88v-42.24h90.88v-145.92c0-8.96-7.04-15.36-20.48-19.2l19.2-39.68z"  horiz-adv-x="2432" />

    
    <glyph glyph-name="liebiaoxiaji" unicode="&#59219;" d="M918.4256 140.8a27.1872 27.1872 0 0 0-27.2384 27.1872V358.4a27.1872 27.1872 0 0 1-27.1872 27.1872h-272.0256a27.1872 27.1872 0 0 0-27.136 27.1872V504.7808c0 15.0528 12.1344 27.1872 27.136 27.1872h49.5104a27.1872 27.1872 0 0 1 27.2384 27.2384V766.4128A27.1872 27.1872 0 0 1 641.4848 793.6H433.7152a27.1872 27.1872 0 0 1-27.2384-27.1872V559.104c0-15.0528 12.1856-27.2384 27.2384-27.2384h49.4592c15.0528 0 27.2384-12.1344 27.2384-27.136v-91.9552a27.1872 27.1872 0 0 0-27.1872-27.2384H211.2a27.1872 27.1872 0 0 1-27.1872-27.1872v-189.8496a27.1872 27.1872 0 0 0-27.1872-27.7504H129.536a27.1872 27.1872 0 0 1-27.1872-27.1872v-163.2256c0-15.0016 12.1856-27.1872 27.1872-27.1872H292.864a27.1872 27.1872 0 0 1 27.1872 27.1872V113.664a27.1872 27.1872 0 0 1-27.1872 27.1872h-27.2384a27.1872 27.1872 0 0 0-27.136 27.1872v135.9872c0 15.0528 12.1344 27.2384 27.136 27.2384h217.6c15.0528 0 27.2384-12.1856 27.2384-27.1872v-135.4752a27.1872 27.1872 0 0 0-27.1872-27.7504h-27.7504a27.1872 27.1872 0 0 1-27.2384-27.1872v-163.2256c0-15.0016 12.1856-27.1872 27.2384-27.1872h163.1744a27.1872 27.1872 0 0 1 27.1872 27.1872V113.664a27.1872 27.1872 0 0 1-27.136 27.1872h-26.7264a27.1872 27.1872 0 0 0-27.136 27.1872v135.9872c0 15.0528 12.1344 27.2384 27.136 27.2384h217.6c15.0528 0 27.2384-12.1856 27.2384-27.1872v-135.4752a27.1872 27.1872 0 0 0-27.2384-27.1872h-27.136a27.1872 27.1872 0 0 1-27.2384-27.2384v-163.1744c0-15.0528 12.1856-27.1872 27.1872-27.1872h163.2256a27.1872 27.1872 0 0 1 27.1872 27.136V114.176a27.1872 27.1872 0 0 1-27.1872 27.2384l-27.2384-0.5632z"  horiz-adv-x="1024" />

    
    <glyph glyph-name="liebiaorenyuan" unicode="&#59220;" d="M941.0048 109.9776s-52.992 0.512-41.4208 0.6144h12.6976-12.6976c-21.8624-0.1024-28.8768-0.6144-30.0032-0.6144 23.6032 189.5424-264.192 260.9152-264.192 290.7136 0 23.1936 6.8096 26.7264 28.0064 48.384 22.1184 22.7328 38.6048 62.1056 42.3936 115.1488 10.496 146.8928-86.272 175.616-6.0928 175.616s135.6288-66.1504 135.6288-147.6608c0-53.0944-40.1408-113.8688-48.4352-127.8976-8.9088-15.0016-9.7792-46.8992-10.0864-50.7904-1.1264-58.6752 212.7872-78.7968 212.8896-203.776h0.7168v-79.872c0-11.0592-8.704-19.8656-19.456-19.8656z m-417.1264 264.4992c-1.28-72.2944 266.0352-96.9728 266.1376-250.88h0.768v-98.4064c0-13.4144-10.752-24.1664-24.1664-24.1664H88.4224a24.1664 24.1664 0 0 0-24.2176 24.1664v98.4064h0.8192c0.5632 165.888 264.7552 181.2992 266.0864 250.88 0.4096 3.584 0.512 41.728-12.5952 62.5152-13.824 22.1184-60.6208 92.0064-60.6208 157.3888 0 100.352 69.2224 181.76 169.472 181.76 100.352 0 169.6256-81.3568 169.6256-181.76 0-65.3824-53.6064-138.5984-60.5696-157.3888-7.5264-20.3776-12.2368-57.7024-12.544-62.464z"  horiz-adv-x="1024" />

    
    <glyph glyph-name="wenjianjia" unicode="&#59216;" d="M1023.616 612.672H0V758.912C0 799.232 32.704 832 73.088 832h255.936l146.24-146.24h475.2c40.384 0 73.152-32.704 73.152-73.088zM73.088 539.52h877.44c48.704 0 73.088-24.32 73.088-73.088v-438.72c0-48.704-24.32-73.088-73.152-73.088H73.088c-48.704 0-73.088 24.32-73.088 73.088V466.432C0 515.2 24.32 539.52 73.088 539.52z"  horiz-adv-x="1024" />

    
    <glyph glyph-name="zuzhijiagou" unicode="&#59217;" d="M904 160a27.968 27.968 0 0 0-28.032 28.032V384a27.968 27.968 0 0 1-27.968 28.032H568a27.968 27.968 0 0 0-28.032 27.968V534.656c0 15.424 12.544 27.968 28.032 27.968h50.944a27.968 27.968 0 0 1 28.032 28.032V803.968A27.968 27.968 0 0 1 618.88 832H405.12a27.968 27.968 0 0 1-28.032-28.032V590.72c0-15.488 12.544-28.032 28.032-28.032h50.944c15.488 0 28.032-12.544 28.032-27.968v-94.656a27.968 27.968 0 0 0-28.032-28.032H176A27.968 27.968 0 0 1 147.968 384v-195.456a28.032 28.032 0 0 0-27.968-28.544h-28.032a27.968 27.968 0 0 1-27.968-28.032v-167.936c0-15.488 12.544-28.032 28.032-28.032h168a27.968 27.968 0 0 1 27.968 28.032v167.936a27.968 27.968 0 0 1-28.032 28.032h-27.968a27.968 27.968 0 0 0-28.032 28.032V327.936c0 15.488 12.544 28.032 28.032 28.032h224c15.488 0 28.032-12.544 28.032-28.032v-139.456a28.032 28.032 0 0 0-28.032-28.544h-28.544a27.968 27.968 0 0 1-28.032-28.032v-167.936c0-15.488 12.544-28.032 28.032-28.032h168a27.968 27.968 0 0 1 27.968 28.032v167.936a27.968 27.968 0 0 1-27.968 28.032h-27.456a27.968 27.968 0 0 0-28.032 28.032V327.936c0 15.488 12.544 28.032 28.032 28.032h224c15.488 0 28.032-12.544 28.032-28.032v-139.456a27.968 27.968 0 0 0-28.032-27.968h-28.032a27.968 27.968 0 0 1-27.968-28.032v-168c0-15.424 12.544-27.968 28.032-27.968h167.936a27.968 27.968 0 0 1 28.032 27.968v168a27.968 27.968 0 0 1-28.032 28.032l-27.968-0.576z"  horiz-adv-x="1024" />

    
    <glyph glyph-name="ren" unicode="&#59218;" d="M880.896 191.68c-56.832 25.344-141.12 90.816-265.984 113.28 31.936 34.368 56.064 88.064 80.96 151.744 14.4 36.864 11.904 68.352 11.904 113.152 0 33.024 6.208 86.144-1.92 115.328-27.52 98.56-97.152 125.76-178.624 125.76-81.6 0-151.232-27.328-178.752-126.08-8.064-29.056-1.92-82.048-1.92-115.072 0-44.8-2.368-76.416 12.096-113.344 24.96-64 48.832-117.632 80.64-151.872-123.84-22.912-207.488-87.808-263.936-113.152-116.864-52.352-117.44-109.696-117.44-109.696v-97.472l940.8 0.128v97.28s-0.64 57.6-117.824 110.016z"  horiz-adv-x="1024" />

    
    <glyph glyph-name="shexiangtou" unicode="&#58965;" d="M382.634667 299.989333H318.378667V383.146667L256 394.709333V128l62.378667 21.248v92.757333H418.56l54.826667 75.392-71.850667 38.656-18.901333-56.064z m325.12-17.365333L853.333333 377.344 399.658667 682.666667h-52.906667L274.901333 566.698667v-38.656l398.848-247.381334h34.048v1.962667z m-54.784-19.328L308.906667 491.349333l-35.925334-38.656 398.848-247.381333h35.925334l18.901333 19.328 18.901333 56.021333s-52.906667-38.656-54.826666-38.656a320.469333 320.469333 0 0 1-37.802667 21.290667z"  horiz-adv-x="1024" />

    
    <glyph glyph-name="dingwei1" unicode="&#58956;" d="M545.578667 725.333333C393.002667 725.333333 269.226667 603.008 269.226667 452.138667c0-167.765333 164.565333-314.88 252.586666-397.653334a34.816 34.816 0 0 1 47.573334-0.085333c85.930667 80.64 252.586667 230.485333 252.586666 397.738667 0 150.869333-123.733333 273.194667-276.394666 273.194666z m0-375.765333c-57.258667 0-103.722667 45.909333-103.722667 102.570667C441.856 508.8 488.277333 554.666667 545.578667 554.666667c57.344 0 103.808-45.909333 103.808-102.570667 0-56.661333-46.464-102.570667-103.808-102.570667z"  horiz-adv-x="1024" />

    
    <glyph glyph-name="caichang" unicode="&#58963;" d="M720.384 389.674667c-17.066667-18.474667-42.666667-28.416-69.674667-28.416s-51.2 11.349333-69.674666 28.416c-17.066667-18.474667-42.666667-28.416-69.717334-28.416-27.008 0-51.2 11.349333-69.674666 28.416-17.066667-18.474667-42.666667-28.416-69.674667-28.416-27.050667 0-51.2 11.349333-69.717333 28.416-17.066667-18.474667-42.666667-28.416-69.674667-28.416h-9.941333v-295.850667c0-12.501333 10.24-22.741333 22.741333-22.741333h41.258667a22.741333 22.741333 0 0 1 22.741333 22.741333V251.733333c0 6.272 5.12 11.392 11.392 11.392h140.8c6.229333 0 11.349333-5.12 11.349333-11.392v-186.325333c0-12.501333 10.24-22.741333 22.784-22.741333h280.149334a22.741333 22.741333 0 0 1 22.784 22.741333v295.850667h-9.984a86.229333 86.229333 0 0 0-68.266667 28.416z m-2.816-240.341334H552.533333v113.792h164.992V149.333333z m126.549333 335.658667l-94.421333 166.272a22.741333 22.741333 0 0 1-19.797333 11.52h-84.906667a11.392 11.392 0 0 0-11.349333 11.349333v39.808A11.392 11.392 0 0 1 622.250667 725.333333h-221.866667a11.392 11.392 0 0 1-11.349333-11.392V674.133333c0-6.272-5.12-11.392-11.392-11.392h-84.906667a22.741333 22.741333 0 0 1-19.754667-11.477333L178.517333 484.992c-21.333333-39.850667 2.858667-91.050667 46.933334-95.317333h8.533333c38.4 0 69.717333 31.317333 69.717333 69.717333 0-38.4 31.274667-69.717333 69.674667-69.717333s69.674667 31.317333 69.674667 69.717333c0-38.4 31.317333-69.717333 69.717333-69.717333 38.4 0 69.674667 31.317333 69.674667 69.717333 0-38.4 31.274667-69.717333 69.674666-69.717333s69.717333 31.317333 69.717334 69.717333c0-38.4 31.274667-69.717333 69.674666-69.717333h8.533334c41.258667 4.266667 65.408 55.466667 44.074666 95.317333z"  horiz-adv-x="1024" />

    
    <glyph glyph-name="nonglin" unicode="&#58964;" d="M360.106667 171.94666700000005l3.456-0.341334a221.013333 221.013333 0 0 1 29.994666-0.597333v-88.021333a16.768 16.768 0 1 0-33.493333-0.170667z m290.773333 552.704l7.850667-0.384c105.429333-8.618667 154.752-173.952 171.050666-244.693334a16.853333 16.853333 0 0 0-7.808-18.261333c-26.368-15.786667-40.917333-34.133333-40.917333-51.882667 0-23.722667 23.168-58.794667 57.728-87.296 4.864-4.053333 7.04-10.666667 5.589333-16.725333-10.581333-44.714667-40.192-79.829333-85.674666-101.674667-29.738667-13.909333-65.066667-21.888-102.570667-22.954666V389.546667a16.384 16.384 0 0 1 4.949333 3.84l76.714667 87.296a16.768 16.768 0 0 1-1.408 23.637333 16.768 16.768 0 0 1-23.637333-1.536l-56.618667-64.298667V543.146667a16.768 16.768 0 0 1-33.493333 0v-219.861334l-50.133334 60.16a16.64 16.64 0 0 1-23.637333 2.176 16.64 16.64 0 0 1-2.176-23.68l69.205333-83.114666c1.749333-2.218667 4.096-3.797333 6.741334-4.864v-92.330667c-0.298667 0.085333-0.512 0.085333-0.853334 0.085333-43.690667 3.498667-82.218667 15.36-113.066666 34.346667-14.933333-15.36-34.986667-27.434667-58.581334-35.285333-17.578667-5.589333-36.565333-8.96-56.576-9.770667v202.410667a16.768 16.768 0 0 1-33.493333 0v-48.981334l-36.053333 19.2a16.725333 16.725333 0 0 1-22.741334-6.826666 16.725333 16.725333 0 0 1 6.912-22.784l51.882667-27.776v-114.346667c-52.650667 5.12-95.530667 25.856-121.045333 58.752-22.186667 28.928-29.994667 66.176-22.485334 107.690667 12.501333 70.101333 33.621333 133.034667 59.434667 177.365333 41.002667 70.058667 85.930667 81.749333 116.48 79.146667 30.293333-2.432 57.301333-20.992 80.64-55.253334 11.52 31.488 24.448 59.776 38.485333 83.84 41.173333 70.442667 91.989333 105.301333 147.157334 100.821334z m-25.941333-543.146667h0.725333l10.837333-0.64 10.666667-0.170667 5.973333 0.085334v-0.085334h1.493334c0.512 0.085333 0.981333 0.085333 1.493333 0.085334v-118.229334a16.768 16.768 0 0 0-33.493333 0v119.04l2.304-0.085333z"  horiz-adv-x="1024" />

    
    <glyph glyph-name="xuanze" unicode="&#58958;" d="M512 896c282.784 0 512-229.216 512-512s-229.216-512-512-512S0 101.216 0 384 229.216 896 512 896z m293.344-306.656h-66.016l-300.8-319.648-205.184 143.616-44-21.984 264-241.984 352 440z"  horiz-adv-x="1024" />

    
    <glyph glyph-name="gengduo" unicode="&#58959;" d="M362.656 42.656L704 384 366.944 725.344 320 678.4l294.4-294.4-294.4-298.656z"  horiz-adv-x="1024" />

    
    <glyph glyph-name="morenyixuan" unicode="&#58960;" d="M512 896c282.784 0 512-229.216 512-512s-229.216-512-512-512S0 101.216 0 384 229.216 896 512 896z m293.344-306.656h-66.016l-300.8-319.648-205.184 143.616-44-21.984 264-241.984 352 440z"  horiz-adv-x="1024" />

    
    <glyph glyph-name="bitian" unicode="&#58961;" d="M768-128l121.2416 100.5056-278.4256 343.7056L1024 444.7744l-49.408 154.3168-399.7184-158.976L590.592 896h-157.184l17.92-455.8848L49.4592 599.04 0 444.7744l413.184-128.5632-278.4256-343.7056L256-128l256 369.408z"  horiz-adv-x="1024" />

    
    <glyph glyph-name="cuowu" unicode="&#58962;" d="M512 896c282.784 0 512-229.216 512-512s-229.216-512-512-512S0 101.216 0 384 229.216 896 512 896z m32-704h-64v-64h64v64z m0 448h-64v-384h64V640z"  horiz-adv-x="1024" />

    
    <glyph glyph-name="guanbi" unicode="&#58957;" d="M993.823943 762.620917L615.150786 381.144662l374.086268-375.105577a76.575561 76.575561 0 0 0 0-102.567931 76.320734 76.320734 0 0 0-103.714654 0l-377.144193 368.989725-377.144194-376.63454a75.428839 75.428839 0 0 0-106.899993 0 75.938493 75.938493 0 0 0 0 107.15482l373.958854 378.163503L22.677643 757.906615a76.575561 76.575561 0 0 0 0 108.683783 73.262808 73.262808 0 0 0 106.77258 0L508.50562 489.955858 886.92395 868.119361a76.320734 76.320734 0 1 0 108.428956-107.027407L993.951356 762.620917v-0.254827z"  horiz-adv-x="1027" />

    
    <glyph glyph-name="dangyuan" unicode="&#58944;" d="M729.002667 328.405333a148.48 148.48 0 0 0 63.061333-96.682666c0.682667-3.114667 1.706667-6.570667 2.773333-9.685334v-37.76h-0.341333c-9.045333-23.594667-18.048-47.146667-28.8-75.904 5.930667-4.48 15.616-11.776 24.96-19.072-14.890667-16.256-27.733333-30.464-40.874667-44.672H746.666667c-6.954667 7.253333-13.525333 15.232-21.162667 21.802667a13.738667 13.738667 0 0 1-11.434667 2.773333c-22.869333-7.594667-45.738667-16.256-68.608-24.576h-41.557333c-28.416 9.685333-57.173333 19.413333-82.474667 28.074667-7.978667-9.045333-16.298667-18.346667-24.618666-28.074667h-14.933334c-12.458667 6.912-21.802667 15.232-18.005333 31.146667 3.498667 14.933333 15.274667 18.773333 32.256 19.797333-8.32 11.093333-15.274667 19.754667-22.528 29.44 9.344 8.32 18.346667 16.298667 28.416 24.96 48.512-44.714667 104.96-59.605333 171.861333-37.418666-37.077333 33.962667-72.405333 66.517333-109.141333 100.48-4.522667-4.864-13.184-14.208-21.162667-23.210667-15.914667 16.256-30.805333 31.530667-45.397333 46.08 23.253333 23.552 48.896 49.536 74.88 75.178667 2.773333 2.773333 8.96 2.773333 13.866667 3.114666l20.778666 0.725334c6.912 1.024 13.184 3.413333 19.754667 5.205333 1.024 0.341333 2.773333-1.066667 3.84-1.749333 7.253333-6.954667 14.848-14.208 22.144-20.778667-13.525333-13.866667-26.026667-27.050667-34.986667-36.394667 32.554667-34.986667 65.493333-70.357333 99.413334-106.410666 14.933333 14.592 16.64 30.165333 17.365333 45.056 3.114667 67.925333-29.141333 116.48-88.362667 149.717333a151.381333 151.381333 0 0 0-10.410666 5.546667c-0.341333 0-0.341333 0.682667-0.682667 1.365333 23.552 3.84 64.810667-8.661333 93.226667-28.074667z m-188.16 56.490667c6.912 0 13.824-0.682667 20.437333-2.432 18.688-4.138667 22.485333-14.506667 10.709333-29.098667-7.594667-9.386667-17.322667-17.322667-25.984-25.6-32.554667-30.549333-65.152-60.672-98.048-91.178666 8.32-12.458667 16.256-22.869333 22.869334-34.304 2.432-4.138667 3.114667-11.093333 1.024-15.232-19.413333-40.533333-39.509333-80.042667-60.288-119.893334-1.706667-3.84-6.570667-8.661333-10.069334-8.32-45.738667 2.432-92.16 2.432-137.557333 8.96-41.216 6.272-50.944 21.504-49.92 62.08 2.133333 72.746667 19.413333 141.013333 69.333333 197.546667 33.962667 38.4 77.952 57.173333 129.578667 57.472 42.666667 0.341333 85.248 0 127.872 0z m-46.805334 340.309333c11.776-3.456 23.552-6.570667 34.986667-10.752 66.901333-24.234667 109.184-90.069333 101.546667-157.312-7.978667-69.973333-66.56-126.848-138.624-134.826666-81.408-8.96-155.562667 37.802667-176.384 110.933333-23.893333 84.522667 32.938667 172.202667 122.325333 188.842667 3.84 0.682667 7.637333 2.090667 11.434667 3.114666h44.714666z"  horiz-adv-x="1024" />

    
    <glyph glyph-name="tiyu" unicode="&#58945;" d="M713.941333 639.957333c48.085333 1.109333 87.978667-37.461333 89.045334-86.144 1.109333-48.64-37.034667-89.002667-85.12-90.112a87.594667 87.594667 0 0 0-89.088 86.144v1.962667a86.613333 86.613333 0 0 0 85.162666 88.106667V640zM170.666667 388.992c39.978667 1.365333 79.957333 2.645333 119.936 3.84l17.365333-19.114667 158.464-126.72a21.333333 21.333333 0 0 0-4.693333-22.528l-56.064-37.034666a38.570667 38.570667 0 0 0-35.114667 5.12c-64.341333 53.077333-128.64 106.24-192.896 159.488-6.997333 5.888-6.016 27.733333-6.997333 36.949333z m179.754666 193.536c-21.162667-0.128-11.221333-18.56-0.853333-27.093333 50.56-42.112 101.077333-84.138667 151.637333-126.122667L422.4 371.925333c-13.610667-9.813333-1.92-37.802667 8.32-46.037333l302.592-244.992h119.893333c-3.541333 14.506667-1.92 33.536-13.952 43.093333l-256.768 205.696c28.16 22.357333 56.234667 44.714667 84.181334 67.072a24.874667 24.874667 0 0 1-3.072 33.536 114051.413333 114051.413333 0 0 1-183.637334 154.069334c-43.093333-0.512-86.229333-1.109333-129.536-1.834667z"  horiz-adv-x="1024" />

    
    <glyph glyph-name="jingqu" unicode="&#58946;" d="M284.16 342.229333h3.84L170.837333 489.728l96.384-1.92L325.76 587.946667h370.432l62.378667-100.181334 92.586666 1.92-117.248-147.413333h3.84v-170.112h37.845334v-56.746667H246.357333v56.746667h37.802667V342.186667z m415.829333 340.224v-56.746666h-378.026666v56.746666h378.026666zM416.426667 172.16v151.210667H340.864v-151.210667h75.605333z m132.309333 0v151.210667H473.173333v-151.210667h75.605334z m132.266667 0v151.210667h-75.562667v-151.210667h75.605333z"  horiz-adv-x="1024" />

    
    <glyph glyph-name="peixun" unicode="&#58947;" d="M820.693333 724.949333H203.349333a32.512 32.512 0 0 1 0-64.981333h16.213334v-423.68c0-35.925333 29.141333-65.024 65.024-65.024h67.242666l-20.608-76.8a32.512 32.512 0 0 1 62.72-16.725333l25.173334 93.525333h185.856l25.173333-93.568a32.512 32.512 0 1 1 62.72 16.725333l-20.650667 76.842667h67.242667c35.925333 0 65.024 29.098667 65.024 64.981333V659.968h16.213333a32.512 32.512 0 1 1 0 64.981333z m-508.16-373.674666c0 13.482667 10.922667 24.362667 24.32 24.362666h259.968a24.362667 24.362667 0 1 0 0-48.725333H336.896a24.362667 24.362667 0 0 0-24.362667 24.362667z m381.781334 154.368H336.896a24.362667 24.362667 0 1 0 0 48.725333h357.418667a24.362667 24.362667 0 0 0 0-48.725333z"  horiz-adv-x="1024" />

    
    <glyph glyph-name="xinxiang" unicode="&#58948;" d="M841.813333 469.12s-123.946667-87.253333-285.098666-201.258667c-52.48-31.786667-99.754667 2.688-99.754667 2.688l-277.12 198.570667a8.832 8.832 0 0 1-8.832-8.832v-291.285333c0-34.133333 27.648-61.781333 61.781333-61.781334H788.906667c34.133333 0 61.781333 27.648 61.781333 61.781334v291.285333a8.832 8.832 0 0 1-8.832 8.832zM465.066667 317.354667c32.597333-20.352 42.581333-16.981333 43.648-16.512 2.432-0.725333 13.354667-1.92 43.178666 16.64 78.976 49.237333 267.904 173.866667 288.213334 227.626666 0 0 32.725333 98.816-66.090667 94.165334l-265.6 0.085333v-0.042667L243.2 639.232C144.469333 643.84 177.194667 545.024 177.194667 545.024c20.309333-53.76 209.024-178.432 287.914666-227.669333z"  horiz-adv-x="1024" />

    
    <glyph glyph-name="youeryuan" unicode="&#58950;" d="M463.957333 666.709333v-2.517333c7.552-17.706667 22.741333-32.853333 42.922667-32.853333H512a277.333333 277.333333 0 0 0 260.224-179.370667l2.56-7.594667 2.474667-5.034666h2.56a97.066667 97.066667 0 0 0 73.258666-88.448v-10.112c0-48-35.413333-90.922667-80.853333-98.517334h-5.077333l-2.517334-7.594666c-42.922667-90.922667-133.888-154.112-234.965333-159.146667H512a275.370667 275.370667 0 0 0-247.594667 154.112l-5.077333 5.034667-2.517333 5.077333a101.973333 101.973333 0 0 0-85.888 90.965333v10.069334c0 45.482667 30.293333 83.413333 70.741333 96l5.034667 2.56h2.56c27.733333 88.405333 98.517333 154.112 184.405333 181.888a60.202667 60.202667 0 0 0-15.146667 27.818666c-5.077333 12.629333 2.517333 27.776 15.146667 32.853334 10.112 2.517333 22.741333-2.56 30.293333-15.189334z m141.482667-361.301333c-10.112 10.112-25.258667 7.594667-35.413333-2.517333-15.146667-15.146667-35.328-25.258667-58.069334-25.258667a72.405333 72.405333 0 0 0-55.594666 25.258667 27.050667 27.050667 0 0 1-35.370667 2.56 27.050667 27.050667 0 0 1-2.56-35.413334c22.784-27.776 58.154667-42.922667 93.525333-42.922666 37.888 0 70.741333 15.146667 96 42.922666 7.594667 10.112 7.594667 27.818667-2.56 35.413334z m-169.301333 136.448c-15.146667 0-25.258667-10.112-25.258667-25.258667v-20.224c2.56-12.629333 12.629333-22.741333 25.258667-22.741333 15.189333 0 25.258667 10.112 25.258666 25.258667v20.224c-2.517333 12.629333-12.629333 22.741333-25.258666 22.741333z m151.594666 0c-15.146667 0-25.258667-10.112-25.258666-25.258667v-20.224c2.56-12.629333 12.629333-22.741333 25.258666-22.741333 15.146667 0 25.258667 10.112 25.258667 25.258667v20.224c-2.517333 12.629333-12.629333 22.741333-25.258667 22.741333z"  horiz-adv-x="1024" />

    
    <glyph glyph-name="yiyuan" unicode="&#58952;" d="M565.077333 310.528l105.557334-105.514667a32.469333 32.469333 0 0 0 0-45.824l-112.426667-112.426666a54.186667 54.186667 0 0 1-47.530667 28.458666 54.186667 54.186667 0 0 1-47.573333-28.458666L350.72 159.189333a32.469333 32.469333 0 0 0 0 45.824l105.514667 105.514667v-115.498667c0-7.125333 5.802667-12.928 12.970666-12.928h82.901334a12.970667 12.970667 0 0 1 12.970666 12.928v115.498667zM283.818667 545.962667a32.469333 32.469333 0 0 0 45.824 0l105.557333-105.557334H319.701333a12.970667 12.970667 0 0 1-12.970666-12.928v-82.901333c0-7.168 5.802667-12.970667 12.970666-12.970667H435.2l-105.557333-105.557333a32.512 32.512 0 0 0-45.824 0l-112.384 112.426667a54.186667 54.186667 0 0 1 28.416 47.530666 54.186667 54.186667 0 0 1-28.416 47.573334z m407.893333 0a32.512 32.512 0 0 0 45.781333 0l112.426667-112.384a54.186667 54.186667 0 0 1-28.458667-47.530667c0-20.650667 11.562667-38.314667 28.458667-47.573333L737.493333 226.133333a32.426667 32.426667 0 0 0-45.781333 0l-105.557333 105.557334h115.498666a12.970667 12.970667 0 0 1 12.928 12.928V427.52a12.970667 12.970667 0 0 1-12.928 12.970667h-115.498666zM558.208 725.333333l112.426667-112.426666a32.512 32.512 0 0 0 0-45.824l-105.557334-105.557334V577.024a12.928 12.928 0 0 1-12.970666 12.928h-82.901334a12.928 12.928 0 0 1-12.970666-12.928v-115.498667L350.72 567.04a32.512 32.512 0 0 0 0 45.781333L463.104 725.333333a54.186667 54.186667 0 0 1 47.573333-28.458666A54.186667 54.186667 0 0 1 558.208 725.333333z"  horiz-adv-x="1024" />

    
    <glyph glyph-name="dizhizaihai" unicode="&#58953;" d="M779.178667 169.941333l-11.349334 60.330667 41.557334 30.165333 41.557333-30.165333v-37.674667l-71.765333-22.613333zM170.666667 56.832V645.973333c14.378667 21.162667 62.250667-41.984 143.616-189.482666l41.557333-11.306667-18.901333-98.048 60.458666-94.293333-37.802666-79.146667 75.562666 86.741333-75.52 101.76 37.845334 67.882667 68.010666-22.613333 52.906667-116.906667 185.173333-82.944c128.298667-100.522667 178.218667-150.784 149.76-150.784H170.666667z m423.253333 252.586667l45.397333 60.330666 45.354667-22.656 3.84-33.962666-37.845333-48.981334-56.746667 45.226667z m-98.218667 158.336l45.354667 60.373333 86.954667-30.165333v-33.92l-83.114667-48.981334-49.194667 52.693334z m-185.173333 82.944l18.901333 64.085333h45.312l22.656-45.226667-18.858666-18.858666H310.528z"  horiz-adv-x="1024" />

    
    <glyph glyph-name="xuexiao" unicode="&#58954;" d="M749.994667 525.184V566.186667a24.32 24.32 0 0 1-11.392 20.608l-214.186667 134.613333a24.32 24.32 0 0 1-25.856 0l-214.186667-134.570667a24.32 24.32 0 0 1-11.392-20.650666v-41.045334H195.114667a24.32 24.32 0 0 1-24.32-24.32v-428.373333a24.32 24.32 0 0 1 24.32-24.32H418.986667a24.32 24.32 0 0 1 24.32 24.32v146.048h136.32v-146.048a24.32 24.32 0 0 1 24.32-24.32h223.914666a24.32 24.32 0 0 1 24.32 24.32V500.906667a24.32 24.32 0 0 1-24.32 24.32h-77.866666z m-408.874667-340.736H272.981333V252.586667h68.138667v-68.138667z m0 136.277333H272.981333v68.181334h68.138667v-68.181334z m136.277333 0H409.258667v68.181334h68.138666v-68.181334z m0 136.32H409.258667V525.184h68.138666v-68.138667z m136.32-136.32h-68.138666v68.181334h68.138666v-68.181334z m0 136.32h-68.138666V525.184h68.138666v-68.138667z m136.277334-272.597333h-68.138667V252.586667h68.138667v-68.138667z m0 136.277333h-68.138667v68.181334h68.138667v-68.181334z"  horiz-adv-x="1024" />

    
    <glyph glyph-name="cesuo" unicode="&#58955;" d="M355.072 561.493333a81.493333 81.493333 0 0 1 80.981333 81.92C436.053333 688.64 399.786667 725.333333 355.072 725.333333a81.493333 81.493333 0 0 1-81.024-81.92c0-45.269333 36.266667-81.92 81.024-81.92z m321.792 0a81.493333 81.493333 0 0 1 80.981333 81.92c0 45.226667-36.181333 81.92-80.981333 81.92a81.493333 81.493333 0 0 1-80.981333-81.92c0-45.269333 36.266667-81.92 80.981333-81.92z m-220.544-27.306666H253.781333c-34.986667 0-40.448-33.450667-40.448-40.96v-245.418667c0-7.552 6.058667-13.653333 13.482667-13.653333h33.706667c7.466667 0 13.482667-6.144 13.482666-13.653334v-164.181333c0-7.509333 6.058667-13.653333 13.44-13.653333h135.04a13.568 13.568 0 0 1 13.44 13.653333v164.138667c0 7.552 6.058667 13.653333 13.482667 13.653333h33.92a13.568 13.568 0 0 1 13.482667 13.653333V493.226667c0 7.552-1.792 41.002667-40.490667 41.002666z m396.202667-322.986667l-96.426667 266.88a80.853333 80.853333 0 0 1-76.8 56.106667h-4.650667c-34.773333 0-65.792-22.528-76.714666-56.106667l-96.682667-266.88c-3.2-8.96 3.285333-18.346667 12.672-18.346667h88.661333c7.466667 0 13.482667-6.101333 13.482667-13.653333v-122.88c0-7.509333 6.058667-13.653333 13.525333-13.653333h94.464a13.653333 13.653333 0 0 1 13.525334 13.653333V179.2c0 7.552 6.101333 13.653333 13.482666 13.653333h88.661334a13.653333 13.653333 0 0 1 12.8 18.346667z"  horiz-adv-x="1024" />

    
    <glyph glyph-name="xiaoxue" unicode="&#58951;" d="M516.650667 682.154667c222.549333 0 259.2-226.133333 259.2-226.133334l-14.848-2.005333a267.52 267.52 0 0 0 3.712-58.282667c1.408 0.085333 2.816 0.213333 4.224 0.213334 35.925333-0.042667 65.024-30.293333 64.981333-67.541334-0.042667-37.205333-29.184-67.413333-65.109333-67.370666-8.618667 0-16.853333 1.792-24.32 4.949333-30.976-85.504-123.008-147.498667-231.722667-147.370667-108.458667 0.128-200.234667 62.037333-231.168 147.370667a62.805333 62.805333 0 0 0-22.869333-4.352c-35.925333 0-65.024 30.293333-64.981334 67.498667 0.042667 37.248 29.184 67.413333 65.109334 67.413333 0.853333 0 1.706667-0.128 2.56-0.170667a272.128 272.128 0 0 0 3.797333 58.88c-8.96 1.706667-14.08 2.986667-14.08 2.986667 10.538667 63.36 68.352 223.914667 265.514667 223.914667z m-111.786667-171.178667l-38.912-65.408c-22.442667 0-43.562667 1.621333-61.44 3.712a357.12 357.12 0 0 1-4.650667-23.765333c-2.645333-16.512-4.352-34.261333-5.077333-53.418667 0 0-21.376-2.56-34.816-6.314667-14.208-4.053333-31.786667-17.749333-28.714667-39.296 3.114667-22.016 21.333333-30.464 34.816-30.464 17.066667 0 33.664 2.56 41.898667 8.32 0 0 38.997333-137.6 195.882667-142.208 104.234667-3.029333 182.954667 50.944 220.586666 142.805334 0 0 24.192-10.453333 44.586667-8.277334 12.245333 1.28 25.685333 4.778667 30.890667 23.466667 5.461333 19.754667-3.669333 35.157333-17.024 41.813333-10.154667 5.077333-26.666667 9.216-51.797334 10.666667 0 0 2.005333 19.754667-1.792 49.194667a383.914667 383.914667 0 0 1-4.693333 27.861333c-147.285333-15.914667-285.098667-10.88-285.098667-10.88L404.906667 510.976z m28.16-142.08c5.461333-16.853333-2.645333-34.986667-18.218667-40.405333-15.530667-5.461333-32.554667 3.84-38.058666 20.778666-5.461333 16.896 2.688 34.986667 18.218666 40.405334s32.554667-3.84 38.058667-20.736z m217.898667 0c5.461333-16.853333-2.688-34.986667-18.218667-40.405333-15.530667-5.461333-32.554667 3.84-38.058667 20.778666-5.461333 16.896 2.688 34.986667 18.218667 40.405334s32.554667-3.84 38.058667-20.736z m224.384 298.026667c30.549333-46.933333 19.114667-122.112-4.906667-155.946667-28.16 17.792-53.76 25.386667-97.792 26.624 0 0-11.008 41.856-42.794667 70.4 0 0 58.666667 71.594667 145.493334 58.922667zM292.394667 608C260.608 579.456 249.6 537.6 249.6 537.6c-43.989333-1.237333-69.674667-8.832-97.749333-26.624-24.064 33.834667-35.498667 109.013333-4.906667 155.946667C233.728 679.594667 292.394667 608 292.394667 608z"  horiz-adv-x="1024" />

    
    <glyph glyph-name="shanchu" unicode="&#58979;" d="M512 896C229.248 896 0 666.752 0 384s229.248-512 512-512 512 229.248 512 512S794.752 896 512 896zM800 338.56l-576 0 0 96 576 0L800 338.56z"  horiz-adv-x="1024" />

    
    <glyph glyph-name="fabu" unicode="&#59331;" d="M512 896C229.216 896 0 666.784 0 384s229.216-512 512-512 512 229.216 512 512S794.784 896 512 896z m228.864-551.232h-189.632v-189.632a32.032 32.032 0 1 0-64.064 0v189.632H297.504a32.032 32.032 0 0 0 0 64.064h189.664V598.496a32.032 32.032 0 1 0 64.064 0v-189.664h189.632a32.032 32.032 0 1 0 0-64.064z"  horiz-adv-x="1024" />

    
    <glyph glyph-name="danxuan" unicode="&#58934;" d="M512 725.333333a341.333333 341.333333 0 1 0 0-682.666666 341.333333 341.333333 0 0 0 0 682.666666z m103.424-237.909333a146.304 146.304 0 1 1-206.848-206.848 146.304 146.304 0 0 1 206.848 206.848z"  horiz-adv-x="1024" />

    
    <glyph glyph-name="danhangshuru" unicode="&#58935;" d="M300.074667 351.317333h193.962666l44.416-138.837333h68.010667L429.141333 725.333333h-65.706666L186.112 212.48h68.010667l45.952 138.837333z m86.570666 277.290667c2.688 8.149333 5.376 19.328 7.68 33.962667h1.578667c2.688-16.341333 5.034667-27.52 7.338667-33.962667l71.850666-222.293333H319.402667l67.242666 222.293333zM170.666667 101.973333h682.666666V42.666667H170.666667v59.306666z m472.874666 125.098667c15.829333-14.592 36.693333-22.357333 63.36-22.357333 37.12 0 58.325333 16.768 77.269334 50.346666h1.152v-43.434666h48.298666v185.258666c0 71.381333-33.237333 114.773333-99.285333 114.773334-35.541333 0-60.245333-8.576-87.68-26.197334v-48.170666c27.008 22.784 50.218667 33.962667 83.413333 33.962666 37.12 0 55.637333-30.506667 55.637334-76.501333l-74.538667-11.605333c-60.672-8.618667-91.178667-43.008-91.178667-95.872 0-25.344 8.106667-45.568 23.552-60.16z m38.272 103.637333c8.490667 8.576 23.936 14.165333 46.336 17.194667l57.6 9.002667v-27.093334c0-23.210667-6.997333-45.994667-20.48-61.44-13.909333-15.488-24.362667-22.784-45.610666-22.784-15.061333 0-27.434667 4.266667-36.693334 12.885334a42.666667 42.666667 0 0 0-13.909333 33.109333c0 15.018667 4.266667 30.506667 12.757333 39.125333z"  horiz-adv-x="1024" />

    
    <glyph glyph-name="dingwei" unicode="&#58936;" d="M389.802667 436.394667c4.096-6.4 21.162667-33.578667 107.178666-162.048l0.682667-0.725334a26.88 26.88 0 0 1 20.48-10.666666c8.192 0 16.384 4.266667 20.48 11.392a27505.450667 27505.450667 0 0 0 109.226667 164.181333l0.725333 0.725333a169.557333 169.557333 0 0 1 22.528 83.498667c0 87.808-68.266667 159.914667-152.96 159.914667C433.493333 682.666667 365.226667 611.285333 365.226667 522.752c0-30.72 8.192-59.946667 24.576-86.357333z m127.658666 205.568c62.805333 0 114.005333-53.504 114.005334-119.210667 0-21.418667-5.461333-42.112-16.384-62.08-4.096-6.4-60.074667-90.666667-96.938667-146.346667-28.672 42.837333-90.794667 136.32-96.938667 144.896a119.936 119.936 0 0 0-18.432 62.848c0.682667 65.664 51.882667 119.893333 114.688 119.893334z m0-208.426667c46.421333 0 84.650667 39.978667 84.650667 88.533333 0 48.512-38.229333 88.490667-84.650667 88.490667s-84.650667-39.978667-84.650666-88.490667c0-48.554667 37.546667-88.533333 84.650666-88.533333z m0 137.045333c25.258667 0 45.738667-21.418667 45.738667-47.786666 0-27.178667-20.48-47.872-45.738667-47.872-25.258667 0-45.738667 21.418667-45.738666 47.829333 0 26.453333 20.48 47.829333 45.738666 47.829333z m324.309334-344.746666l-94.890667 192h-78.506667l-30.72-41.386667h85.333334l86.698666-173.482667 1.365334-1.450666c4.778667-6.4 4.778667-14.976 1.365333-22.101334a19.882667 19.882667 0 0 0-18.432-11.434666H230.698667a19.882667 19.882667 0 0 0-18.432 11.434666 22.869333 22.869333 0 0 0 2.048 22.826667l0.682666 0.725333 85.333334 174.165334h96.981333l-32.085333 41.386666H276.48l-94.933333-192.725333a62.549333 62.549333 0 0 1-4.096-63.530667c10.922667-21.418667 30.72-34.261333 53.930666-34.261333h563.285334c22.528 0 43.008 12.842667 53.248 34.261333a65.962667 65.962667 0 0 1-6.144 63.573334z"  horiz-adv-x="1024" />

    
    <glyph glyph-name="duohangshuru" unicode="&#58937;" d="M269.653333 418.133333h163.84l37.546667-109.994666h61.44L385.706667 725.333333h-68.266667L170.666667 304.341333h61.44l37.546666 113.792z m68.266667 212.394667c3.413333 11.349333 6.826667 22.741333 10.24 37.930667h3.413333c0-3.84 3.413333-11.392 10.24-30.336 0-3.84 3.413333-7.594667 3.413334-7.594667 0-3.84 20.48-56.874667 54.613333-163.072h-136.533333c37.546667 106.197333 54.613333 159.274667 54.613333 163.072z m201.386667-64.469333H853.333333v-53.12h-314.026666V566.058667zM170.666667 251.264h682.666666v-53.12H170.666667V251.306667z m368.64 155.477333H853.333333v-53.077333h-314.026666v53.077333zM170.666667 95.744h682.666666V42.666667H170.666667v53.077333z m368.64 625.792H853.333333v-53.077333h-314.026666V721.493333z"  horiz-adv-x="1024" />

    
    <glyph glyph-name="fujian" unicode="&#58938;" d="M811.690667 638.464c-55.466667 58.922667-145.450667 58.922667-200.96 0l-261.205334-277.589333a94.72 94.72 0 0 1 0-128.128c33.28-35.413333 87.296-35.413333 120.576 0l200.96 213.589333a31.530667 31.530667 0 0 1 0 42.666667 27.221333 27.221333 0 0 1-40.192 0l-200.96-213.546667a27.221333 27.221333 0 0 0-40.192 0 31.530667 31.530667 0 0 0 0 42.709333l261.248 277.674667c33.28 35.370667 87.296 35.370667 120.576 0 33.28-35.413333 33.28-92.757333 0-128.170667l-301.44-320.341333c-55.466667-58.965333-145.450667-58.965333-200.96 0-55.466667 58.922667-55.466667 154.538667 0 213.546667l241.152 256.298666a31.530667 31.530667 0 0 1 0 42.709334 27.221333 27.221333 0 0 1-40.192 0L228.949333 403.626667c-77.696-82.602667-77.696-216.448 0-299.008 77.696-82.602667 203.648-82.602667 281.344 0l301.44 320.341333c55.466667 58.965333 55.466667 154.581333-0.042666 213.504z"  horiz-adv-x="1024" />

    
    <glyph glyph-name="duoxuan" unicode="&#58939;" d="M755.541333 725.333333A97.792 97.792 0 0 0 853.333333 627.541333v-487.082666A97.792 97.792 0 0 0 755.541333 42.666667H268.458667A97.792 97.792 0 0 0 170.666667 140.458667V627.541333A97.792 97.792 0 0 0 268.458667 725.333333h487.082666z m-54.272-192.213333a20.992 20.992 0 0 1-29.653333-1.536l-235.349333-261.333333-83.584 92.842666-2.773334 2.56a20.992 20.992 0 0 1-28.416-30.677333l98.901334-109.866667 2.986666-2.730666a20.992 20.992 0 0 1 18.346667-3.413334 20.906667 20.906667 0 0 1 10.666667 6.357334l250.453333 278.186666a20.992 20.992 0 0 1-1.578667 29.610667z"  horiz-adv-x="1024" />

    
    <glyph glyph-name="dianhua" unicode="&#58940;" d="M822.528 128.213333l-38.485333-38.997333A158.037333 158.037333 0 0 0 672.298667 42.666667c-17.834667 0-35.413333 2.986667-52.266667 8.96-208.469333 73.770667-373.632 243.2-441.728 453.376a156.842667 156.842667 0 0 0 54.016 172.842666l33.621333 25.685334A105.642667 105.642667 0 0 0 330.581333 725.333333c40.106667 0 76.501333-22.186667 94.890667-57.941333l56.874667-110.506667a74.453333 74.453333 0 0 0-11.392-84.48l-11.861334-12.885333a41.642667 41.642667 0 0 1-6.357333-47.189333 201.514667 201.514667 0 0 1 87.296-87.210667 42.325333 42.325333 0 0 1 47.232 6.357333l12.885333 11.776a76.032 76.032 0 0 0 84.565334 11.477334l110.549333-56.832a106.325333 106.325333 0 0 0 27.264-169.685334z m-18.858667 85.077334c0 35.114667-149.034667 97.536-149.034666 97.536-20.906667 7.509333-49.706667-24.362667-49.706667-24.362667-51.797333-37.674667-88.32-9.088-99.370667 0-32.341333 26.538667-76.288 83.925333-99.328 121.898667-17.237333 28.458667-9.856 62.165333 0 73.130666 0 0 33.365333 28.288 24.832 48.768-26.026667 63.445333-66.730667 157.44-99.370666 146.304-28.330667-9.173333-146.901333-47.786667-93.269334-188.842666 95.146667-250.026667 293.12-350.72 413.653334-396.288 84.053333-6.058667 158.293333 98.048 151.594666 121.856z"  horiz-adv-x="1024" />

    
    <glyph glyph-name="xiala" unicode="&#58941;" d="M844.8 503.466667a27.477333 27.477333 0 0 1-39.808 0L512 227.541333 219.008 503.466667a27.477333 27.477333 0 0 1-39.808 0 27.477333 27.477333 0 0 1 0-39.808l292.992-275.925334c11.349333-11.392 25.6-17.066667 39.808-17.066666 14.208 0 28.458667 5.674667 39.808 17.066666l292.992 275.925334a27.477333 27.477333 0 0 1 0 39.808z"  horiz-adv-x="1024" />

    
    <glyph glyph-name="riqi" unicode="&#58942;" d="M548.096 334.037333h45.738667c6.912 0 11.434667 4.48 11.434666 11.264v45.013334c0 6.826667-4.522667 11.264-11.434666 11.264h-45.738667c-6.869333 0-11.434667-4.48-11.434667-11.264v-45.013334c0-6.784 4.565333-11.264 11.434667-11.264z m114.346667 0H708.266667c6.869333 0 11.434667 4.48 11.434666 11.264v45.013334c0 6.826667-4.565333 11.264-11.434666 11.264h-45.738667c-6.912 0-11.434667-4.48-11.434667-11.264v-45.013334c0-6.784 4.522667-11.264 11.434667-11.264z m-228.693334 0h45.738667c6.869333 0 11.434667 4.48 11.434667 11.264v45.013334c0 6.826667-4.565333 11.264-11.434667 11.264h-45.781333c-6.826667 0-11.434667-4.48-11.434667-11.264v-45.013334c0-6.784 4.565333-11.264 11.434667-11.264z m228.693334-160.128H708.266667c6.869333 0 11.434667 4.48 11.434666 11.264v45.056c0 6.784-4.565333 11.264-11.434666 11.264h-45.738667c-6.912 0-11.434667-4.48-11.434667-11.264v-45.056c0-6.784 4.522667-11.264 11.434667-11.264z m-114.346667 0h45.738667c6.912 0 11.434667 4.48 11.434666 11.264v45.056c0 6.784-4.522667 11.264-11.434666 11.264h-45.738667c-6.869333 0-11.434667-4.48-11.434667-11.264v-45.056c0-6.784 4.565333-11.264 11.434667-11.264z m-228.736 0h45.738667c6.869333 0 11.434667 4.48 11.434666 11.264v45.056c0 6.784-4.565333 11.264-11.434666 11.264H319.36c-6.869333 0-11.434667-4.48-11.434667-11.264v-45.056c0-6.784 4.565333-11.264 11.434667-11.264z m0 160.128h45.738667c6.869333 0 11.434667 4.48 11.434666 11.264v45.013334c0 6.826667-4.565333 11.264-11.434666 11.264H319.36c-6.869333 0-11.434667-4.48-11.434667-11.264v-45.013334c0-6.784 4.565333-11.264 11.434667-11.264z m114.346667-160.128h45.781333c6.869333 0 11.434667 4.48 11.434667 11.264v45.056c0 6.784-4.565333 11.264-11.434667 11.264h-45.781333c-6.826667 0-11.434667-4.48-11.434667-11.264v-45.056c0-6.784 4.565333-11.264 11.434667-11.264zM772.906667 42.666667H251.093333C206.762667 42.666667 170.666667 78.208 170.666667 121.856V606.549333c0 43.648 36.096 79.189333 80.426666 79.189334h521.813334c44.330667 0 80.426667-35.541333 80.426666-79.189334v-484.693333C853.333333 78.208 817.237333 42.666667 772.906667 42.666667zM251.093333 632.96a26.666667 26.666667 0 0 1-26.794666-26.410667v-484.693333c0-14.506667 12.032-26.410667 26.794666-26.410667h521.813334a26.666667 26.666667 0 0 1 26.794666 26.410667V606.549333a26.666667 26.666667 0 0 1-26.794666 26.453334H251.093333z m-37.546666-94.122667h596.906666v-52.778666H213.546667V538.837333z m147.456 53.674667a26.581333 26.581333 0 0 0-26.837334 26.368V698.922667c0 14.634667 11.989333 26.410667 26.837334 26.410666 14.805333 0 26.794667-11.776 26.794666-26.410666v-80.042667c0-14.592-11.946667-26.368-26.794666-26.368z m288.597333 0a26.581333 26.581333 0 0 0-26.794667 26.368V698.922667c0 14.634667 11.946667 26.410667 26.794667 26.410666s26.794667-11.776 26.794667-26.410666v-80.042667c0-14.592-11.946667-26.368-26.794667-26.368z"  horiz-adv-x="1024" />

    
    <glyph glyph-name="shipin" unicode="&#58943;" d="M690.773333 94.506667c13.482667 0 24.405333-11.605333 24.405334-25.898667 0-14.336-10.922667-25.941333-24.405334-25.941333H317.013333c-13.482667 0-24.405333 11.605333-24.405333 25.941333 0 14.293333 10.922667 25.898667 24.405333 25.898667zM690.773333 725.333333C780.544 725.333333 853.333333 647.978667 853.333333 552.533333v-224.682666c0-95.488-72.789333-172.842667-162.56-172.842667H333.226667c-89.770667 0-162.56 77.354667-162.56 172.8V552.533333C170.666667 647.978667 243.456 725.333333 333.226667 725.333333h357.546666z m0-51.84H333.226667c-30.208 0-59.136-12.757333-80.469334-35.413333a125.013333 125.013333 0 0 1-33.322666-85.589333v-224.64c0-66.816 50.944-121.002667 113.792-121.002667h357.546666c62.848 0 113.792 54.186667 113.792 121.002667V552.490667a125.013333 125.013333 0 0 1-33.28 85.546666 110.464 110.464 0 0 1-80.512 35.413334z m-211.285333-94.72c14.378667 0 28.544-4.096 40.96-11.818666l98.005333-60.8c24.96-15.488 40.32-43.904 40.32-74.666667 0-30.72-15.36-59.136-40.32-74.624l-98.005333-60.8a77.098667 77.098667 0 0 0-81.450667-0.256c-25.216 15.36-40.789333 43.989333-40.789333 74.922667V492.373333c0 47.701333 36.394667 86.4 81.28 86.4z m0-51.882666c-17.92 0-32.512-15.488-32.512-34.56v-121.6c0-12.373333 6.229333-23.808 16.341333-29.952a30.848 30.848 0 0 1 32.554667 0.085333l98.005333 60.8a35.029333 35.029333 0 0 1 16.170667 29.866667 35.029333 35.029333 0 0 1-16.170667 29.866666l-98.005333 60.757334a31.061333 31.061333 0 0 1-16.384 4.736z"  horiz-adv-x="1024" />

    


  </font>
</defs>
</svg>
